<svg xmlns="http://www.w3.org/2000/svg" xmlns:xlink="http://www.w3.org/1999/xlink" viewBox="0 0 35.993 41.999" overflow="visible"><g><path d="M 18.475 0.079 C 23.116 1.316 27.177 2.543 31.471 3.977 C 35.461 5.31 35.363 5.352 35.985 5.707 C 35.994 5.961 35.985 6.377 35.985 6.631 C 35.986 6.838 35.986 7.045 35.986 7.253 C 35.986 7.401 35.986 7.549 35.986 7.697 C 35.987 8.1 35.987 8.504 35.987 8.908 C 35.987 9.16 35.987 9.413 35.987 9.666 C 35.988 10.503 35.988 11.341 35.988 12.179 L 35.988 12.453 C 35.988 13.182 35.989 13.911 35.99 14.641 C 35.991 15.392 35.991 16.142 35.991 16.893 C 35.991 17.314 35.991 17.734 35.992 18.155 C 35.993 18.553 35.993 18.95 35.992 19.347 C 35.992 19.492 35.992 19.636 35.993 19.781 C 36.004 24.3 34.894 28.951 31.915 32.472 L 31.792 32.629 C 31.331 33.211 30.817 33.744 30.304 34.28 L 30.133 34.459 C 29.837 34.764 29.52 35.034 29.188 35.301 C 29.028 35.431 28.874 35.566 28.721 35.704 C 26.273 37.898 23.381 39.517 20.42 40.902 C 19.697 41.239 18.968 41.562 18.258 41.925 C 17.718 42.028 18.022 42.046 17.541 41.83 C 17.434 41.783 16.523 41.387 16.415 41.339 C 15.746 41.039 15.096 40.703 14.438 40.381 C 13.33 39.836 12.268 39.226 11.211 38.586 C 11.151 38.549 11.091 38.513 11.029 38.476 C 10.632 38.232 10.249 37.973 9.87 37.702 C 9.78 37.639 9.689 37.576 9.599 37.513 C 9.043 37.125 8.5 36.724 7.973 36.298 C 7.877 36.221 7.781 36.145 7.685 36.068 C 7.298 35.757 6.931 35.428 6.568 35.09 C 6.423 34.957 6.276 34.827 6.127 34.699 C 5.618 34.256 5.145 33.766 4.713 33.246 L 4.625 33.142 C 1.484 29.423 -0.008 24.717 0 19.893 L 0 19.431 C 0 19.015 0 18.599 0.001 18.183 C 0.001 17.791 0.001 17.4 0.001 17.009 C 0.001 16.234 0.002 15.46 0.002 14.685 C 0.003 13.654 0.004 12.622 0.004 11.59 C 0.005 9.662 0.005 7.862 0.006 5.933 C 3.534 4.436 7.101 2.908 10.78 1.825 C 13.037 1.161 15.285 0.606 17.606 0.047 C 17.93 -0.031 18.158 -0.006 18.475 0.079 Z" fill="rgb(1,74,113)"/><path d="M 21.791 6.893 C 22.512 7.1 23.202 7.364 23.815 7.806 C 23.983 7.927 24.154 8.044 24.325 8.16 C 24.992 8.629 25.506 9.291 25.77 10.065 C 26.29 11.568 27.495 12.526 28.849 13.241 C 28.975 13.308 29.1 13.375 29.226 13.442 C 29.386 13.527 29.526 13.608 29.655 13.738 L 29.655 13.931 L 29.541 13.929 C 29.307 13.926 29.073 13.924 28.839 13.92 C 27.599 13.911 26.471 14.454 26.858 15.886 C 27.186 16.62 27.863 16.721 28.366 17.225 C 28.416 17.484 28.401 17.613 28.271 17.846 C 27.753 18.587 27.078 19.01 26.266 19.363 C 24.897 19.918 23.083 20.114 21.702 19.535 C 21.488 19.434 20.418 18.848 20.985 18.564 L 21.146 18.451 C 21.468 18.129 20.137 18.191 19.862 18.43 C 19.603 18.727 18.762 20.242 19.591 20.288 C 20.067 20.268 19.99 19.757 20.497 20.146 C 21.566 20.938 23.17 21.032 24.442 20.849 C 25.201 20.727 25.983 20.595 26.71 20.34 C 26.917 20.27 27.055 20.238 27.27 20.259 C 27.318 20.402 27.334 20.34 27.27 20.582 C 26.642 21.483 25.66 22.044 24.711 22.547 C 24.359 22.721 23.996 22.839 23.62 22.947 C 23.42 23.005 23.218 23.055 23.015 23.101 C 22.05 23.318 21.07 23.311 20.087 23.309 C 19.014 23.305 18.067 23.278 17.04 22.982 C 16.817 22.918 16.596 22.851 16.376 22.778 C 16.899 23.924 17.869 24.746 19.019 25.231 C 19.717 25.48 20.338 25.568 21.077 25.57 C 21.208 25.57 21.34 25.572 21.471 25.574 C 21.992 25.578 22.455 25.527 22.958 25.396 C 23.138 25.362 23.233 25.363 23.402 25.425 L 23.431 25.662 C 23.53 26.42 23.697 27.13 23.934 27.856 C 23.985 28.016 24.031 28.178 24.077 28.339 C 24.16 28.619 24.269 28.868 24.405 29.126 C 24.451 29.215 24.497 29.305 24.542 29.394 L 24.615 29.537 C 25.303 30.891 25.948 32.292 26.11 33.819 L 26.126 33.956 C 26.16 34.274 26.195 34.605 26.11 34.917 C 25.907 35.145 25.676 35.246 25.4 35.369 C 25.311 35.43 25.224 35.493 25.139 35.559 C 24.949 35.692 24.949 35.692 24.82 35.692 L 24.82 35.821 L 24.599 35.938 C 24.302 36.103 24.02 36.285 23.737 36.471 C 22.816 37.071 21.874 37.626 20.908 38.15 L 20.792 38.213 C 20.359 38.449 19.943 38.653 19.47 38.791 L 19.469 38.605 C 19.462 37.476 19.455 36.39 19.121 35.301 C 19.072 35.136 19.036 34.968 18.999 34.8 C 18.863 34.316 18.611 33.873 18.374 33.432 L 18.308 33.309 C 17.908 32.568 17.489 31.896 16.827 31.366 C 16.751 31.299 16.674 31.231 16.598 31.164 C 16.11 30.75 15.595 30.481 15.022 30.203 C 14.893 30.139 14.764 30.074 14.636 30.01 L 14.758 30.185 C 15.643 31.469 16.267 32.912 16.674 34.417 L 16.712 34.554 C 16.987 35.607 17.047 36.618 17.033 37.702 C 17.032 37.833 17.031 37.965 17.03 38.096 C 17.028 38.414 17.025 38.732 17.021 39.05 C 16.792 38.975 16.577 38.899 16.364 38.787 C 16.092 38.648 15.817 38.516 15.539 38.387 C 14.917 38.096 14.336 37.745 13.734 37.418 C 12.895 36.962 12.143 36.469 11.366 35.965 C 11.034 35.75 10.699 35.539 10.381 35.305 C 10.027 35.043 8.923 34.145 8.641 33.884 C 8.558 33.811 8.474 33.738 8.391 33.666 C 7.703 33.065 7.042 32.449 6.449 31.753 L 6.349 31.639 C 6.173 31.434 6.095 31.366 5.933 31.172 C 5.91 30.898 5.96 30.778 6.127 30.563 C 6.329 30.288 6.504 30.008 6.671 29.711 C 6.925 29.258 7.24 28.856 7.442 28.371 C 7.662 28.008 7.843 27.628 7.996 27.233 C 8.134 26.878 8.397 26.1 8.476 25.845 C 8.648 25.271 8.777 24.707 8.863 24.115 C 8.891 23.928 8.923 23.748 8.967 23.565 C 9.132 22.855 9.176 22.164 9.178 21.439 C 9.179 21.273 9.18 21.106 9.181 20.94 C 9.185 20.587 9.187 20.233 9.189 19.88 C 9.191 19.47 9.194 19.061 9.197 18.651 C 9.199 18.489 9.199 18.327 9.2 18.165 C 9.203 17.692 9.216 17.221 9.267 16.75 L 9.291 16.522 C 9.364 16.273 9.48 16.167 9.672 15.998 C 9.925 15.613 9.977 15.184 10.027 14.734 C 10.059 14.513 10.059 14.513 10.125 14.294 C 10.358 13.424 10.174 12.553 9.753 11.776 C 9.492 11.367 9.125 11.08 8.662 10.927 C 8.111 10.815 7.631 10.845 7.158 11.155 L 7.094 11.284 L 6.965 11.284 C 7.018 10.832 7.287 10.555 7.617 10.27 C 8.041 9.977 8.535 10.015 9.027 10.057 C 9.227 10.114 9.376 10.194 9.543 10.315 L 9.737 10.445 C 10.324 10.969 10.779 11.852 10.832 12.64 L 10.961 12.64 L 10.981 12.503 C 11.026 12.317 11.026 12.317 11.118 12.136 C 11.395 11.571 11.451 10.895 11.28 10.287 C 11.18 9.908 11.261 9.691 11.449 9.359 C 11.658 9.025 11.898 8.712 12.186 8.443 C 12.379 8.262 12.694 7.999 12.867 7.878 L 13.015 7.773 C 13.486 7.451 13.975 7.225 14.507 7.022 L 14.627 6.975 C 16.79 6.136 19.572 6.23 21.791 6.893 Z" fill="rgb(28,187,211)"/><path d="M 19.007 2.501 C 20.407 2.864 21.765 3.186 23.2 3.621 C 24.686 4.071 26.084 4.449 27.635 4.972 C 28.683 5.325 29.731 5.675 30.782 6.018 C 31.774 6.346 32.819 6.776 33.748 7.251 C 33.757 7.496 33.756 7.741 33.757 7.987 C 33.758 8.718 33.757 9.449 33.757 10.181 C 33.757 10.588 33.757 10.995 33.757 11.402 C 33.757 12.131 33.757 12.86 33.757 13.589 C 33.756 14.248 33.756 14.907 33.757 15.566 C 33.757 16.332 33.757 17.098 33.757 17.864 C 33.757 18.269 33.757 18.674 33.757 19.08 C 33.757 19.462 33.757 19.844 33.757 20.226 C 33.757 20.365 33.757 20.505 33.757 20.644 C 33.758 21.692 33.757 22.736 33.563 23.769 L 33.528 23.96 C 33.369 24.824 33.133 25.629 32.802 26.442 C 32.723 26.636 32.648 26.829 32.578 27.026 C 32.374 27.606 32.171 28.133 31.853 28.656 C 31.472 29.286 31.092 29.845 30.662 30.432 L 30.577 30.55 C 30.341 30.877 30.08 31.206 29.816 31.529 C 29.597 31.755 28.919 32.445 28.693 32.671 C 28.591 32.756 28.591 32.756 28.462 32.756 C 28.399 32.526 28.336 32.296 28.273 32.066 L 28.219 31.869 C 28.185 31.747 28.152 31.625 28.119 31.503 C 27.917 30.716 27.465 29.688 26.984 29.035 C 26.812 28.753 26.72 28.465 26.621 28.151 L 26.565 27.976 C 26.527 27.86 26.49 27.744 26.453 27.628 C 26.402 27.47 26.35 27.312 26.296 27.154 C 26.219 26.924 26.156 26.693 26.102 26.456 L 26.055 26.254 C 25.949 25.716 25.941 25.2 25.944 24.652 L 25.945 24.417 C 25.946 24.226 25.947 24.036 25.949 23.845 L 26.48 23.563 C 27.065 23.252 27.613 22.772 28.076 22.296 C 28.15 22.219 28.224 22.143 28.301 22.07 C 28.504 21.867 28.694 21.65 28.855 21.392 C 28.958 21.262 28.97 21.21 29.049 21.101 C 29.064 21.051 29.084 21.036 29.11 20.969 C 29.265 20.568 29.455 20.411 29.836 20.225 C 30.221 20.033 30.584 19.847 30.892 19.539 C 31.151 19.279 31.402 19.002 31.617 18.724 C 31.908 18.406 32.046 18.066 32.199 17.664 C 32.352 17.363 32.414 17.04 32.467 16.71 C 32.644 15.459 32.508 14.485 31.903 13.389 C 31.663 13.079 31.335 12.863 31.041 12.61 C 30.757 12.365 30.41 12.194 30.227 12.067 C 29.865 11.824 29.452 11.664 29.139 11.351 C 28.995 11.206 28.939 11.141 28.849 10.931 C 28.67 10.511 28.596 10.191 28.462 9.802 C 28.155 9.029 27.615 8.329 26.98 7.799 C 25.913 6.909 24.836 6.172 23.593 5.555 C 21.887 4.714 19.81 4.447 17.929 4.461 C 15.293 4.48 12.917 4.837 10.901 6.718 C 10.389 7.129 9.924 7.693 9.64 8.284 C 8.673 8.091 7.669 8.174 6.804 8.671 C 6.357 8.922 6.078 9.288 5.713 9.624 C 4.892 10.508 4.818 11.825 4.848 12.965 C 4.91 14.269 5.566 15.311 6.457 16.218 L 6.565 16.327 C 6.762 16.523 6.951 16.665 7.19 16.807 L 7.19 16.936 L 7.319 16.936 C 7.275 17.851 7.204 18.763 7.126 19.676 C 7.083 20.184 7.041 20.691 6.997 21.198 C 6.939 21.87 6.81 22.526 6.697 23.19 C 6.61 23.695 6.496 24.187 6.356 24.681 L 6.309 24.85 C 6.215 25.175 6.1 25.479 5.959 25.787 C 5.895 25.926 5.841 26.067 5.788 26.21 C 5.46 27.04 4.999 27.941 4.354 28.559 C 3.864 27.658 3.436 26.765 3.129 25.782 C 2.943 25.197 2.776 24.606 2.62 24.011 C 2.194 22.287 2.257 20.527 2.265 18.765 C 2.267 18.359 2.267 17.953 2.267 17.547 C 2.268 16.868 2.27 16.189 2.272 15.509 C 2.275 14.55 2.277 13.59 2.278 12.63 C 2.281 10.837 2.286 9.044 2.291 7.251 C 3.282 6.748 4.312 6.379 5.356 6.004 C 6.981 5.419 8.612 4.865 10.248 4.313 C 10.931 4.083 11.615 3.881 12.313 3.707 C 13.598 3.386 14.883 3.064 16.167 2.741 C 18.094 2.256 18.094 2.256 19.007 2.5 Z" fill="rgb(0,136,171)"/><path d="M 18.505 9.48 C 19.526 9.442 20.427 9.806 21.179 10.485 C 21.83 11.1 22.185 11.874 22.221 12.774 C 22.229 13.755 21.921 14.66 21.248 15.385 C 20.404 16.183 19.456 16.383 18.338 16.356 C 17.135 16.304 15.731 15.926 14.836 15.075 C 14.324 14.437 14.134 13.718 14.179 12.913 C 14.234 12.428 14.543 12.057 14.902 11.753 C 15.135 11.52 15.296 11.242 15.519 10.986 L 15.624 10.865 C 16.052 10.38 16.488 10.046 17.094 9.815 L 17.27 9.745 C 17.686 9.584 18.063 9.51 18.505 9.48 Z" fill="rgb(1,74,113)"/><path d="M 19.691 11.303 C 20.11 11.503 20.447 11.679 20.659 12.102 C 20.82 12.36 20.66 13.434 20.304 14.071 C 20.282 14.115 20.259 14.159 20.237 14.202 C 20.133 14.383 20.069 14.452 19.869 14.515 L 19.724 14.523 C 19.674 14.322 19.66 14.156 19.664 13.946 C 19.668 13.579 19.627 13.325 19.402 13.038 C 19.208 12.715 18.554 12.711 18.298 12.715 C 18.128 12.718 17.96 12.718 17.79 12.715 C 17.726 12.651 17.726 12.651 17.706 12.421 C 17.711 12.065 17.834 11.772 18.082 11.516 C 18.537 11.127 19.136 11.123 19.691 11.303 Z" fill="rgb(29,188,212)"/></g></svg>