<svg xmlns="http://www.w3.org/2000/svg" xmlns:xlink="http://www.w3.org/1999/xlink" width="500" zoomAndPan="magnify" viewBox="0 0 375 374.999991" height="500" preserveAspectRatio="xMidYMid meet" version="1.0"><defs><g/><clipPath id="e9369f07de"><path d="M 35.875 152.320312 L 87.625 152.320312 L 87.625 212.320312 L 35.875 212.320312 Z M 35.875 152.320312 " clip-rule="nonzero"/></clipPath><clipPath id="857f63e589"><rect x="0" width="246" y="0" height="63"/></clipPath></defs><g clip-path="url(#e9369f07de)"><path fill="#014a71" d="M 62.4375 152.457031 C 69.113281 154.222656 74.949219 155.972656 81.125 158.019531 C 86.859375 159.921875 86.71875 159.980469 87.613281 160.488281 C 87.628906 160.851562 87.613281 161.445312 87.613281 161.808594 C 87.617188 162.105469 87.617188 162.398438 87.617188 162.695312 C 87.617188 162.90625 87.617188 163.117188 87.617188 163.328125 C 87.617188 163.90625 87.617188 164.480469 87.617188 165.058594 C 87.617188 165.417969 87.617188 165.78125 87.617188 166.140625 C 87.617188 167.335938 87.617188 168.53125 87.617188 169.726562 L 87.617188 170.117188 C 87.617188 171.160156 87.621094 172.199219 87.621094 173.242188 C 87.621094 174.316406 87.621094 175.386719 87.621094 176.457031 C 87.621094 177.058594 87.621094 177.65625 87.625 178.257812 C 87.625 178.828125 87.625 179.394531 87.625 179.960938 C 87.625 180.167969 87.625 180.371094 87.625 180.578125 C 87.640625 187.03125 86.046875 193.671875 81.761719 198.695312 L 81.585938 198.921875 C 80.921875 199.75 80.183594 200.511719 79.445312 201.277344 L 79.199219 201.53125 C 78.773438 201.96875 78.320312 202.355469 77.839844 202.734375 C 77.613281 202.921875 77.390625 203.113281 77.171875 203.308594 C 73.652344 206.441406 69.492188 208.753906 65.234375 210.730469 C 64.195312 211.210938 63.148438 211.671875 62.125 212.191406 C 61.351562 212.335938 61.789062 212.363281 61.097656 212.054688 C 60.941406 211.988281 59.632812 211.421875 59.476562 211.355469 C 58.515625 210.925781 57.582031 210.445312 56.632812 209.988281 C 55.042969 209.207031 53.515625 208.335938 51.996094 207.425781 C 51.910156 207.371094 51.820312 207.320312 51.734375 207.265625 C 51.164062 206.917969 50.613281 206.550781 50.066406 206.164062 C 49.9375 206.070312 49.804688 205.980469 49.675781 205.890625 C 48.878906 205.339844 48.097656 204.765625 47.339844 204.15625 C 47.199219 204.046875 47.0625 203.941406 46.925781 203.828125 C 46.367188 203.386719 45.839844 202.914062 45.320312 202.433594 C 45.109375 202.242188 44.898438 202.058594 44.683594 201.875 C 43.953125 201.242188 43.273438 200.542969 42.652344 199.800781 L 42.527344 199.652344 C 38.007812 194.34375 35.863281 187.625 35.875 180.738281 L 35.875 180.082031 C 35.875 179.488281 35.875 178.890625 35.878906 178.296875 C 35.878906 177.738281 35.878906 177.179688 35.878906 176.621094 C 35.878906 175.515625 35.878906 174.410156 35.878906 173.304688 C 35.878906 171.832031 35.882812 170.359375 35.882812 168.886719 C 35.882812 166.136719 35.882812 163.566406 35.882812 160.8125 C 40.957031 158.675781 46.085938 156.492188 51.375 154.949219 C 54.621094 154 57.851562 153.207031 61.1875 152.410156 C 61.65625 152.296875 61.984375 152.332031 62.4375 152.457031 Z M 62.4375 152.457031 " fill-opacity="1" fill-rule="nonzero"/></g><path fill="#1cbbd3" d="M 67.207031 162.183594 C 68.242188 162.476562 69.234375 162.855469 70.117188 163.484375 C 70.359375 163.65625 70.605469 163.824219 70.851562 163.992188 C 71.808594 164.660156 72.546875 165.605469 72.925781 166.710938 C 73.675781 168.855469 75.40625 170.222656 77.355469 171.242188 C 77.535156 171.339844 77.714844 171.433594 77.894531 171.53125 C 78.125 171.652344 78.328125 171.769531 78.511719 171.953125 L 78.511719 172.230469 L 78.347656 172.226562 C 78.011719 172.222656 77.675781 172.21875 77.339844 172.214844 C 75.558594 172.199219 73.933594 172.976562 74.492188 175.019531 C 74.964844 176.066406 75.9375 176.210938 76.660156 176.929688 C 76.730469 177.300781 76.710938 177.484375 76.523438 177.816406 C 75.777344 178.875 74.808594 179.480469 73.640625 179.984375 C 71.671875 180.773438 69.0625 181.054688 67.078125 180.230469 C 66.769531 180.085938 65.230469 179.246094 66.046875 178.84375 L 66.277344 178.679688 C 66.742188 178.222656 64.828125 178.308594 64.433594 178.652344 C 64.0625 179.074219 62.851562 181.238281 64.042969 181.304688 C 64.726562 181.273438 64.617188 180.546875 65.347656 181.101562 C 66.882812 182.230469 69.1875 182.367188 71.019531 182.105469 C 72.109375 181.929688 73.234375 181.742188 74.277344 181.378906 C 74.578125 181.277344 74.773438 181.230469 75.085938 181.261719 C 75.152344 181.464844 75.175781 181.378906 75.085938 181.722656 C 74.179688 183.007812 72.769531 183.808594 71.40625 184.527344 C 70.898438 184.777344 70.375 184.945312 69.835938 185.097656 C 69.546875 185.183594 69.257812 185.253906 68.964844 185.320312 C 67.578125 185.628906 66.167969 185.617188 64.757812 185.617188 C 63.214844 185.609375 61.851562 185.570312 60.375 185.148438 C 60.054688 185.058594 59.738281 184.960938 59.421875 184.859375 C 60.171875 186.492188 61.566406 187.667969 63.222656 188.359375 C 64.222656 188.714844 65.117188 188.839844 66.179688 188.84375 C 66.367188 188.84375 66.558594 188.847656 66.746094 188.847656 C 67.496094 188.855469 68.160156 188.78125 68.882812 188.59375 C 69.144531 188.546875 69.28125 188.546875 69.523438 188.636719 L 69.5625 188.976562 C 69.707031 190.058594 69.945312 191.070312 70.289062 192.105469 C 70.359375 192.335938 70.425781 192.566406 70.492188 192.796875 C 70.613281 193.195312 70.769531 193.550781 70.964844 193.917969 C 71.03125 194.046875 71.097656 194.175781 71.160156 194.300781 L 71.265625 194.507812 C 72.257812 196.4375 73.183594 198.4375 73.417969 200.617188 L 73.4375 200.816406 C 73.488281 201.269531 73.539062 201.742188 73.417969 202.1875 C 73.125 202.511719 72.792969 202.65625 72.394531 202.832031 C 72.265625 202.917969 72.140625 203.007812 72.019531 203.101562 C 71.746094 203.292969 71.746094 203.292969 71.5625 203.292969 L 71.5625 203.476562 L 71.242188 203.644531 C 70.816406 203.878906 70.410156 204.140625 70.003906 204.40625 C 68.679688 205.261719 67.324219 206.054688 65.9375 206.800781 L 65.769531 206.890625 C 65.148438 207.226562 64.550781 207.519531 63.871094 207.714844 L 63.867188 207.449219 C 63.859375 205.839844 63.847656 204.289062 63.367188 202.734375 C 63.296875 202.5 63.246094 202.257812 63.191406 202.019531 C 62.996094 201.328125 62.632812 200.695312 62.292969 200.066406 L 62.199219 199.890625 C 61.625 198.832031 61.019531 197.875 60.070312 197.117188 C 59.960938 197.023438 59.847656 196.925781 59.738281 196.828125 C 59.039062 196.238281 58.296875 195.855469 57.472656 195.457031 C 57.289062 195.367188 57.101562 195.273438 56.917969 195.183594 L 57.09375 195.429688 C 58.367188 197.265625 59.265625 199.324219 59.847656 201.472656 L 59.902344 201.667969 C 60.300781 203.171875 60.386719 204.613281 60.367188 206.164062 C 60.363281 206.347656 60.363281 206.539062 60.359375 206.722656 C 60.359375 207.179688 60.355469 207.632812 60.347656 208.085938 C 60.019531 207.980469 59.710938 207.871094 59.402344 207.710938 C 59.011719 207.511719 58.617188 207.324219 58.21875 207.140625 C 57.324219 206.722656 56.488281 206.222656 55.621094 205.757812 C 54.414062 205.105469 53.335938 204.402344 52.21875 203.683594 C 51.738281 203.375 51.257812 203.074219 50.800781 202.742188 C 50.292969 202.367188 48.703125 201.085938 48.300781 200.710938 C 48.179688 200.609375 48.058594 200.503906 47.941406 200.402344 C 46.949219 199.542969 46 198.664062 45.148438 197.667969 L 45.003906 197.507812 C 44.75 197.214844 44.640625 197.117188 44.40625 196.839844 C 44.371094 196.449219 44.445312 196.277344 44.683594 195.972656 C 44.976562 195.578125 45.226562 195.179688 45.46875 194.753906 C 45.832031 194.109375 46.285156 193.535156 46.574219 192.84375 C 46.890625 192.324219 47.152344 191.78125 47.371094 191.21875 C 47.570312 190.710938 47.949219 189.601562 48.0625 189.234375 C 48.308594 188.417969 48.496094 187.613281 48.617188 186.765625 C 48.660156 186.5 48.703125 186.242188 48.769531 185.980469 C 49.003906 184.96875 49.070312 183.980469 49.070312 182.945312 C 49.074219 182.710938 49.074219 182.472656 49.074219 182.234375 C 49.082031 181.730469 49.085938 181.226562 49.085938 180.722656 C 49.089844 180.136719 49.09375 179.550781 49.097656 178.964844 C 49.101562 178.734375 49.101562 178.503906 49.101562 178.273438 C 49.109375 177.597656 49.125 176.925781 49.199219 176.253906 L 49.234375 175.925781 C 49.339844 175.570312 49.507812 175.421875 49.78125 175.179688 C 50.144531 174.628906 50.21875 174.019531 50.292969 173.375 C 50.339844 173.058594 50.339844 173.058594 50.433594 172.746094 C 50.769531 171.503906 50.503906 170.261719 49.898438 169.152344 C 49.523438 168.570312 48.996094 168.160156 48.328125 167.941406 C 47.539062 167.78125 46.847656 167.824219 46.167969 168.265625 L 46.074219 168.449219 L 45.890625 168.449219 C 45.964844 167.804688 46.351562 167.410156 46.828125 167.003906 C 47.4375 166.585938 48.148438 166.640625 48.855469 166.699219 C 49.140625 166.78125 49.355469 166.894531 49.597656 167.066406 L 49.875 167.253906 C 50.71875 168 51.375 169.261719 51.449219 170.386719 L 51.636719 170.386719 L 51.664062 170.191406 C 51.730469 169.925781 51.730469 169.925781 51.859375 169.667969 C 52.257812 168.859375 52.339844 167.894531 52.09375 167.027344 C 51.949219 166.484375 52.066406 166.175781 52.335938 165.703125 C 52.636719 165.226562 52.984375 164.777344 53.398438 164.394531 C 53.675781 164.136719 54.125 163.761719 54.375 163.589844 L 54.589844 163.4375 C 55.265625 162.980469 55.96875 162.65625 56.734375 162.367188 L 56.90625 162.300781 C 60.015625 161.101562 64.015625 161.234375 67.207031 162.183594 Z M 67.207031 162.183594 " fill-opacity="1" fill-rule="nonzero"/><path fill="#0088ab" d="M 63.203125 155.914062 C 65.214844 156.429688 67.167969 156.890625 69.230469 157.511719 C 71.367188 158.152344 73.378906 158.691406 75.609375 159.441406 C 77.117188 159.945312 78.621094 160.445312 80.132812 160.933594 C 81.558594 161.402344 83.0625 162.015625 84.398438 162.691406 C 84.410156 163.042969 84.410156 163.394531 84.410156 163.742188 C 84.414062 164.789062 84.410156 165.832031 84.410156 166.875 C 84.410156 167.457031 84.410156 168.039062 84.410156 168.617188 C 84.410156 169.660156 84.410156 170.699219 84.410156 171.742188 C 84.410156 172.679688 84.410156 173.621094 84.410156 174.5625 C 84.410156 175.65625 84.410156 176.75 84.410156 177.84375 C 84.410156 178.421875 84.410156 179 84.410156 179.578125 C 84.410156 180.125 84.410156 180.667969 84.410156 181.214844 C 84.410156 181.414062 84.410156 181.613281 84.410156 181.8125 C 84.414062 183.308594 84.410156 184.796875 84.132812 186.273438 L 84.082031 186.546875 C 83.851562 187.777344 83.515625 188.929688 83.039062 190.089844 C 82.925781 190.367188 82.816406 190.640625 82.714844 190.921875 C 82.421875 191.75 82.128906 192.503906 81.671875 193.25 C 81.125 194.148438 80.578125 194.945312 79.960938 195.785156 L 79.839844 195.953125 C 79.5 196.417969 79.125 196.890625 78.746094 197.351562 C 78.429688 197.671875 77.453125 198.65625 77.128906 198.980469 C 76.984375 199.101562 76.984375 199.101562 76.796875 199.101562 C 76.707031 198.773438 76.617188 198.445312 76.527344 198.117188 L 76.449219 197.835938 C 76.398438 197.660156 76.351562 197.488281 76.304688 197.3125 C 76.015625 196.191406 75.363281 194.722656 74.671875 193.789062 C 74.425781 193.386719 74.292969 192.976562 74.152344 192.527344 L 74.070312 192.277344 C 74.015625 192.113281 73.960938 191.945312 73.910156 191.78125 C 73.835938 191.554688 73.761719 191.332031 73.683594 191.105469 C 73.574219 190.777344 73.480469 190.445312 73.40625 190.109375 L 73.335938 189.820312 C 73.183594 189.050781 73.171875 188.316406 73.175781 187.53125 L 73.179688 187.199219 C 73.179688 186.925781 73.183594 186.652344 73.183594 186.382812 L 73.949219 185.980469 C 74.789062 185.535156 75.578125 184.847656 76.242188 184.171875 C 76.347656 184.058594 76.457031 183.953125 76.566406 183.847656 C 76.859375 183.558594 77.132812 183.246094 77.363281 182.878906 C 77.511719 182.695312 77.527344 182.621094 77.640625 182.464844 C 77.664062 182.394531 77.691406 182.371094 77.730469 182.277344 C 77.953125 181.703125 78.226562 181.480469 78.773438 181.214844 C 79.328125 180.941406 79.847656 180.675781 80.292969 180.234375 C 80.664062 179.863281 81.023438 179.46875 81.335938 179.070312 C 81.753906 178.617188 81.949219 178.132812 82.171875 177.558594 C 82.390625 177.128906 82.480469 176.667969 82.554688 176.195312 C 82.8125 174.410156 82.613281 173.019531 81.746094 171.457031 C 81.398438 171.011719 80.929688 170.703125 80.507812 170.34375 C 80.097656 169.992188 79.597656 169.75 79.335938 169.566406 C 78.816406 169.222656 78.222656 168.992188 77.769531 168.546875 C 77.5625 168.339844 77.484375 168.246094 77.355469 167.945312 C 77.097656 167.347656 76.992188 166.890625 76.796875 166.335938 C 76.355469 165.230469 75.578125 164.230469 74.667969 163.476562 C 73.132812 162.203125 71.585938 161.152344 69.796875 160.273438 C 67.34375 159.070312 64.359375 158.691406 61.652344 158.710938 C 57.863281 158.738281 54.449219 159.246094 51.550781 161.933594 C 50.8125 162.519531 50.144531 163.324219 49.734375 164.167969 C 48.34375 163.890625 46.902344 164.011719 45.660156 164.71875 C 45.015625 165.078125 44.613281 165.601562 44.089844 166.082031 C 42.910156 167.34375 42.804688 169.222656 42.847656 170.851562 C 42.933594 172.710938 43.878906 174.199219 45.160156 175.492188 L 45.316406 175.648438 C 45.597656 175.929688 45.871094 176.132812 46.214844 176.335938 L 46.214844 176.519531 L 46.398438 176.519531 C 46.335938 177.824219 46.234375 179.125 46.121094 180.429688 C 46.058594 181.15625 46 181.878906 45.9375 182.601562 C 45.851562 183.5625 45.667969 184.5 45.503906 185.445312 C 45.378906 186.167969 45.214844 186.871094 45.015625 187.574219 L 44.945312 187.816406 C 44.8125 188.28125 44.644531 188.714844 44.445312 189.152344 C 44.351562 189.351562 44.273438 189.554688 44.199219 189.757812 C 43.726562 190.941406 43.0625 192.226562 42.136719 193.109375 C 41.429688 191.824219 40.816406 190.550781 40.375 189.144531 C 40.105469 188.3125 39.867188 187.46875 39.644531 186.617188 C 39.03125 184.15625 39.121094 181.644531 39.132812 179.128906 C 39.136719 178.550781 39.136719 177.96875 39.136719 177.390625 C 39.136719 176.421875 39.140625 175.453125 39.140625 174.480469 C 39.148438 173.113281 39.148438 171.742188 39.152344 170.371094 C 39.15625 167.8125 39.164062 165.253906 39.167969 162.691406 C 40.59375 161.976562 42.074219 161.449219 43.578125 160.914062 C 45.914062 160.078125 48.257812 159.289062 50.609375 158.5 C 51.59375 158.171875 52.574219 157.882812 53.578125 157.632812 C 55.425781 157.175781 57.273438 156.714844 59.121094 156.253906 C 61.890625 155.5625 61.890625 155.5625 63.203125 155.910156 Z M 63.203125 155.914062 " fill-opacity="1" fill-rule="nonzero"/><path fill="#014a71" d="M 62.480469 165.875 C 63.949219 165.820312 65.246094 166.339844 66.328125 167.308594 C 67.261719 168.1875 67.773438 169.292969 67.824219 170.578125 C 67.835938 171.976562 67.394531 173.269531 66.425781 174.304688 C 65.210938 175.445312 63.847656 175.730469 62.242188 175.691406 C 60.511719 175.617188 58.492188 175.078125 57.207031 173.863281 C 56.46875 172.953125 56.199219 171.925781 56.261719 170.777344 C 56.339844 170.082031 56.785156 169.554688 57.300781 169.121094 C 57.636719 168.789062 57.867188 168.390625 58.1875 168.023438 L 58.339844 167.851562 C 58.953125 167.160156 59.582031 166.683594 60.453125 166.351562 L 60.707031 166.253906 C 61.304688 166.023438 61.847656 165.917969 62.480469 165.875 Z M 62.480469 165.875 " fill-opacity="1" fill-rule="nonzero"/><path fill="#1dbcd4" d="M 64.1875 168.476562 C 64.789062 168.761719 65.273438 169.015625 65.578125 169.617188 C 65.808594 169.984375 65.582031 171.519531 65.070312 172.429688 C 65.035156 172.492188 65.003906 172.554688 64.972656 172.617188 C 64.824219 172.875 64.730469 172.972656 64.441406 173.0625 L 64.234375 173.074219 C 64.164062 172.785156 64.140625 172.550781 64.148438 172.25 C 64.152344 171.726562 64.09375 171.363281 63.773438 170.953125 C 63.492188 170.492188 62.550781 170.488281 62.183594 170.492188 C 61.941406 170.496094 61.699219 170.496094 61.453125 170.492188 C 61.363281 170.402344 61.363281 170.402344 61.332031 170.074219 C 61.339844 169.566406 61.515625 169.148438 61.875 168.78125 C 62.527344 168.226562 63.390625 168.21875 64.1875 168.476562 Z M 64.1875 168.476562 " fill-opacity="1" fill-rule="nonzero"/><g transform="matrix(1, 0, 0, 1, 116, 156)"><g clip-path="url(#857f63e589)"><g fill="#ffffff" fill-opacity="1"><g transform="translate(0.78087, 46.591307)"><g><path d="M 3.6875 0 L 3.6875 -43.390625 L 11.078125 -43.390625 L 26.953125 -5.59375 L 27.015625 -5.59375 L 42.84375 -43.390625 L 50.21875 -43.390625 L 50.21875 0 L 45.109375 0 L 45.109375 -36 L 44.984375 -36 L 29.671875 0 L 24.25 0 L 8.921875 -35.9375 L 8.796875 -35.9375 L 8.796875 0 Z M 3.6875 0 "/></g></g></g><g fill="#ffffff" fill-opacity="1"><g transform="translate(54.697708, 46.591307)"><g><path d="M 19.015625 1.234375 C 15.734375 1.234375 12.789062 0.492188 10.1875 -0.984375 C 7.582031 -2.460938 5.539062 -4.492188 4.0625 -7.078125 C 2.582031 -9.660156 1.84375 -12.59375 1.84375 -15.875 C 1.84375 -19.082031 2.519531 -21.914062 3.875 -24.375 C 5.226562 -26.832031 7.101562 -28.769531 9.5 -30.1875 C 11.90625 -31.601562 14.644531 -32.3125 17.71875 -32.3125 C 20.757812 -32.3125 23.40625 -31.601562 25.65625 -30.1875 C 27.914062 -28.769531 29.679688 -26.820312 30.953125 -24.34375 C 32.222656 -21.863281 32.878906 -19.019531 32.921875 -15.8125 C 32.921875 -15.53125 32.921875 -15.234375 32.921875 -14.921875 C 32.921875 -14.617188 32.898438 -14.300781 32.859375 -13.96875 L 6.703125 -13.96875 C 6.953125 -11.832031 7.628906 -9.929688 8.734375 -8.265625 C 9.847656 -6.609375 11.296875 -5.316406 13.078125 -4.390625 C 14.859375 -3.472656 16.859375 -3.015625 19.078125 -3.015625 C 21.492188 -3.015625 23.664062 -3.578125 25.59375 -4.703125 C 27.53125 -5.835938 28.925781 -7.242188 29.78125 -8.921875 L 33.84375 -7.265625 C 33.1875 -5.617188 32.128906 -4.148438 30.671875 -2.859375 C 29.222656 -1.566406 27.503906 -0.5625 25.515625 0.15625 C 23.523438 0.875 21.359375 1.234375 19.015625 1.234375 Z M 6.765625 -18.09375 L 27.9375 -18.09375 C 27.65625 -21.25 26.578125 -23.6875 24.703125 -25.40625 C 22.835938 -27.132812 20.488281 -28 17.65625 -28 C 14.789062 -28 12.375 -27.085938 10.40625 -25.265625 C 8.4375 -23.441406 7.222656 -21.050781 6.765625 -18.09375 Z M 6.765625 -18.09375 "/></g></g></g><g fill="#ffffff" fill-opacity="1"><g transform="translate(90.026782, 46.591307)"><g><path d="M 19.015625 1.234375 C 15.734375 1.234375 12.789062 0.492188 10.1875 -0.984375 C 7.582031 -2.460938 5.539062 -4.492188 4.0625 -7.078125 C 2.582031 -9.660156 1.84375 -12.59375 1.84375 -15.875 C 1.84375 -19.082031 2.519531 -21.914062 3.875 -24.375 C 5.226562 -26.832031 7.101562 -28.769531 9.5 -30.1875 C 11.90625 -31.601562 14.644531 -32.3125 17.71875 -32.3125 C 20.757812 -32.3125 23.40625 -31.601562 25.65625 -30.1875 C 27.914062 -28.769531 29.679688 -26.820312 30.953125 -24.34375 C 32.222656 -21.863281 32.878906 -19.019531 32.921875 -15.8125 C 32.921875 -15.53125 32.921875 -15.234375 32.921875 -14.921875 C 32.921875 -14.617188 32.898438 -14.300781 32.859375 -13.96875 L 6.703125 -13.96875 C 6.953125 -11.832031 7.628906 -9.929688 8.734375 -8.265625 C 9.847656 -6.609375 11.296875 -5.316406 13.078125 -4.390625 C 14.859375 -3.472656 16.859375 -3.015625 19.078125 -3.015625 C 21.492188 -3.015625 23.664062 -3.578125 25.59375 -4.703125 C 27.53125 -5.835938 28.925781 -7.242188 29.78125 -8.921875 L 33.84375 -7.265625 C 33.1875 -5.617188 32.128906 -4.148438 30.671875 -2.859375 C 29.222656 -1.566406 27.503906 -0.5625 25.515625 0.15625 C 23.523438 0.875 21.359375 1.234375 19.015625 1.234375 Z M 6.765625 -18.09375 L 27.9375 -18.09375 C 27.65625 -21.25 26.578125 -23.6875 24.703125 -25.40625 C 22.835938 -27.132812 20.488281 -28 17.65625 -28 C 14.789062 -28 12.375 -27.085938 10.40625 -25.265625 C 8.4375 -23.441406 7.222656 -21.050781 6.765625 -18.09375 Z M 6.765625 -18.09375 "/></g></g></g><g fill="#ffffff" fill-opacity="1"><g transform="translate(125.355856, 46.591307)"><g><path d="M 16.5625 -32.375 C 19.226562 -32.375 21.410156 -31.53125 23.109375 -29.84375 C 24.816406 -28.164062 25.8125 -25.769531 26.09375 -22.65625 L 22.03125 -21.296875 C 21.789062 -23.472656 21.125 -25.132812 20.03125 -26.28125 C 18.945312 -27.425781 17.5625 -28 15.875 -28 C 13.375 -28 11.394531 -27.035156 9.9375 -25.109375 C 8.476562 -23.179688 7.75 -20.515625 7.75 -17.109375 L 7.75 0 L 3.078125 0 L 3.078125 -31.078125 L 7.078125 -31.078125 L 7.515625 -26.21875 L 7.5625 -26.21875 C 8.425781 -28.101562 9.648438 -29.597656 11.234375 -30.703125 C 12.816406 -31.816406 14.59375 -32.375 16.5625 -32.375 Z M 16.5625 -32.375 "/></g></g></g><g fill="#ffffff" fill-opacity="1"><g transform="translate(152.683569, 46.591307)"><g><path d="M 0.609375 0 L 17.484375 -43.390625 L 23.640625 -43.390625 L 40.375 0 L 34.953125 0 L 31.015625 -10.40625 L 10.09375 -10.40625 L 6.09375 0 Z M 11.578125 -14.953125 L 29.484375 -14.953125 L 20.625 -38.34375 L 20.5 -38.34375 Z M 11.578125 -14.953125 "/></g></g></g><g fill="#ffffff" fill-opacity="1"><g transform="translate(193.675142, 46.591307)"><g><path d="M 3.6875 0 L 3.6875 -43.390625 L 21.484375 -43.390625 C 24.597656 -43.390625 27.332031 -42.820312 29.6875 -41.6875 C 32.050781 -40.5625 33.898438 -39.015625 35.234375 -37.046875 C 36.566406 -35.078125 37.234375 -32.800781 37.234375 -30.21875 C 37.234375 -27.675781 36.566406 -25.410156 35.234375 -23.421875 C 33.898438 -21.429688 32.039062 -19.878906 29.65625 -18.765625 C 27.28125 -17.660156 24.554688 -17.109375 21.484375 -17.109375 L 8.671875 -17.109375 L 8.671875 0 Z M 8.671875 -21.71875 L 21.484375 -21.71875 C 23.578125 -21.71875 25.421875 -22.078125 27.015625 -22.796875 C 28.617188 -23.515625 29.867188 -24.519531 30.765625 -25.8125 C 31.671875 -27.101562 32.125 -28.570312 32.125 -30.21875 C 32.125 -32.757812 31.140625 -34.832031 29.171875 -36.4375 C 27.203125 -38.039062 24.640625 -38.84375 21.484375 -38.84375 L 8.671875 -38.84375 Z M 8.671875 -21.71875 "/></g></g></g><g fill="#ffffff" fill-opacity="1"><g transform="translate(232.143208, 46.591307)"><g><path d="M 3.6875 0 L 3.6875 -43.390625 L 8.796875 -43.390625 L 8.796875 0 Z M 3.6875 0 "/></g></g></g></g></g></svg>