<svg xmlns="http://www.w3.org/2000/svg" xmlns:xlink="http://www.w3.org/1999/xlink" width="750" zoomAndPan="magnify" viewBox="0 0 562.5 149.999998" height="200" preserveAspectRatio="xMidYMid meet" version="1.0"><defs><g/><clipPath id="0415a9ef7b"><path d="M 21.699219 29.046875 L 100.378906 29.046875 L 100.378906 121.214844 L 21.699219 121.214844 Z M 21.699219 29.046875 " clip-rule="nonzero"/></clipPath><clipPath id="68afe033e2"><rect x="0" width="423" y="0" height="107"/></clipPath></defs><g clip-path="url(#0415a9ef7b)"><path fill="#014a71" d="M 62.085938 29.25 C 72.230469 31.964844 81.105469 34.65625 90.492188 37.800781 C 99.214844 40.722656 99 40.816406 100.359375 41.59375 C 100.378906 42.152344 100.359375 43.0625 100.359375 43.621094 C 100.363281 44.074219 100.363281 44.527344 100.363281 44.984375 C 100.363281 45.308594 100.363281 45.632812 100.363281 45.957031 C 100.363281 46.84375 100.363281 47.726562 100.363281 48.613281 C 100.363281 49.167969 100.363281 49.722656 100.363281 50.277344 C 100.367188 52.113281 100.367188 53.949219 100.367188 55.789062 L 100.367188 56.386719 C 100.367188 57.988281 100.371094 59.585938 100.371094 61.1875 C 100.375 62.832031 100.375 64.480469 100.375 66.125 C 100.375 67.050781 100.375 67.96875 100.375 68.894531 C 100.378906 69.765625 100.378906 70.636719 100.375 71.507812 C 100.375 71.824219 100.375 72.140625 100.378906 72.460938 C 100.402344 82.371094 97.976562 92.570312 91.464844 100.289062 L 91.195312 100.636719 C 90.1875 101.910156 89.0625 103.082031 87.941406 104.257812 L 87.566406 104.648438 C 86.921875 105.316406 86.226562 105.910156 85.503906 106.496094 C 85.152344 106.78125 84.816406 107.078125 84.480469 107.378906 C 79.128906 112.191406 72.808594 115.742188 66.335938 118.777344 C 64.753906 119.515625 63.160156 120.226562 61.609375 121.023438 C 60.429688 121.246094 61.09375 121.289062 60.042969 120.8125 C 59.808594 120.710938 57.816406 119.84375 57.582031 119.738281 C 56.117188 119.078125 54.699219 118.34375 53.257812 117.636719 C 50.835938 116.441406 48.515625 115.101562 46.207031 113.699219 C 46.074219 113.617188 45.941406 113.539062 45.808594 113.457031 C 44.941406 112.921875 44.101562 112.355469 43.273438 111.761719 C 43.078125 111.621094 42.878906 111.484375 42.679688 111.347656 C 41.464844 110.496094 40.277344 109.617188 39.128906 108.679688 C 38.917969 108.511719 38.707031 108.347656 38.496094 108.175781 C 37.652344 107.496094 36.847656 106.773438 36.054688 106.03125 C 35.738281 105.742188 35.417969 105.457031 35.089844 105.175781 C 33.980469 104.203125 32.945312 103.128906 32 101.988281 L 31.808594 101.761719 C 24.941406 93.605469 21.679688 83.285156 21.699219 72.703125 L 21.699219 71.691406 C 21.699219 70.777344 21.699219 69.867188 21.699219 68.953125 C 21.699219 68.09375 21.699219 67.238281 21.699219 66.378906 C 21.699219 64.679688 21.703125 62.984375 21.703125 61.285156 C 21.703125 59.023438 21.707031 56.757812 21.707031 54.496094 C 21.710938 50.269531 21.710938 46.320312 21.710938 42.089844 C 29.421875 38.808594 37.222656 35.457031 45.261719 33.082031 C 50.195312 31.625 55.109375 30.40625 60.183594 29.183594 C 60.894531 29.011719 61.390625 29.066406 62.085938 29.25 Z M 62.085938 29.25 " fill-opacity="1" fill-rule="nonzero"/></g><path fill="#1cbbd3" d="M 69.332031 44.195312 C 70.910156 44.648438 72.417969 45.226562 73.757812 46.199219 C 74.125 46.460938 74.5 46.71875 74.871094 46.972656 C 76.332031 48.003906 77.453125 49.453125 78.03125 51.152344 C 79.167969 54.449219 81.800781 56.546875 84.761719 58.117188 C 85.035156 58.261719 85.308594 58.410156 85.585938 58.558594 C 85.933594 58.742188 86.242188 58.921875 86.523438 59.207031 L 86.523438 59.628906 L 86.273438 59.625 C 85.761719 59.617188 85.25 59.613281 84.738281 59.605469 C 82.027344 59.585938 79.5625 60.777344 80.410156 63.917969 C 81.125 65.527344 82.605469 65.75 83.707031 66.855469 C 83.816406 67.421875 83.78125 67.703125 83.496094 68.214844 C 82.367188 69.839844 80.890625 70.769531 79.113281 71.542969 C 76.121094 72.757812 72.15625 73.1875 69.136719 71.917969 C 68.671875 71.699219 66.332031 70.414062 67.570312 69.789062 L 67.921875 69.542969 C 68.625 68.835938 65.71875 68.972656 65.117188 69.496094 C 64.550781 70.148438 62.710938 73.46875 64.523438 73.570312 C 65.5625 73.527344 65.394531 72.40625 66.503906 73.257812 C 68.839844 74.996094 72.347656 75.203125 75.128906 74.800781 C 76.785156 74.535156 78.496094 74.246094 80.085938 73.683594 C 80.539062 73.53125 80.839844 73.460938 81.308594 73.507812 C 81.414062 73.820312 81.449219 73.683594 81.308594 74.214844 C 79.9375 76.191406 77.789062 77.421875 75.714844 78.523438 C 74.945312 78.90625 74.152344 79.164062 73.332031 79.402344 C 72.894531 79.53125 72.453125 79.640625 72.007812 79.738281 C 69.898438 80.214844 67.757812 80.199219 65.609375 80.195312 C 63.261719 80.1875 61.191406 80.128906 58.945312 79.480469 C 58.460938 79.339844 57.976562 79.191406 57.496094 79.03125 C 58.640625 81.542969 60.757812 83.347656 63.273438 84.410156 C 64.800781 84.957031 66.15625 85.148438 67.773438 85.15625 C 68.058594 85.15625 68.347656 85.160156 68.632812 85.164062 C 69.773438 85.171875 70.785156 85.058594 71.882812 84.773438 C 72.277344 84.699219 72.484375 84.699219 72.855469 84.835938 L 72.917969 85.355469 C 73.132812 87.019531 73.5 88.574219 74.015625 90.167969 C 74.128906 90.519531 74.230469 90.875 74.328125 91.226562 C 74.511719 91.839844 74.75 92.386719 75.046875 92.953125 C 75.148438 93.148438 75.25 93.34375 75.347656 93.539062 L 75.507812 93.855469 C 77.011719 96.824219 78.421875 99.894531 78.773438 103.246094 L 78.808594 103.546875 C 78.882812 104.242188 78.960938 104.96875 78.773438 105.652344 C 78.332031 106.152344 77.824219 106.375 77.222656 106.644531 C 77.027344 106.777344 76.835938 106.917969 76.652344 107.0625 C 76.234375 107.351562 76.234375 107.351562 75.953125 107.351562 L 75.953125 107.636719 L 75.472656 107.890625 C 74.820312 108.253906 74.207031 108.652344 73.585938 109.0625 C 71.574219 110.375 69.515625 111.59375 67.402344 112.742188 L 67.148438 112.882812 C 66.203125 113.398438 65.292969 113.847656 64.257812 114.148438 L 64.257812 113.742188 C 64.242188 111.265625 64.226562 108.882812 63.496094 106.496094 C 63.390625 106.132812 63.308594 105.765625 63.230469 105.394531 C 62.933594 104.335938 62.382812 103.363281 61.863281 102.394531 L 61.71875 102.125 C 60.84375 100.5 59.929688 99.027344 58.480469 97.867188 C 58.316406 97.71875 58.148438 97.570312 57.980469 97.421875 C 56.914062 96.515625 55.789062 95.925781 54.535156 95.316406 C 54.253906 95.175781 53.972656 95.03125 53.691406 94.890625 L 53.957031 95.277344 C 55.894531 98.089844 57.257812 101.257812 58.148438 104.554688 L 58.230469 104.855469 C 58.832031 107.167969 58.960938 109.382812 58.933594 111.761719 C 58.929688 112.046875 58.925781 112.335938 58.925781 112.625 C 58.921875 113.320312 58.914062 114.019531 58.90625 114.71875 C 58.40625 114.550781 57.933594 114.386719 57.46875 114.140625 C 56.875 113.835938 56.273438 113.546875 55.667969 113.261719 C 54.304688 112.625 53.035156 111.855469 51.71875 111.136719 C 49.886719 110.136719 48.242188 109.054688 46.542969 107.953125 C 45.816406 107.480469 45.085938 107.015625 44.390625 106.503906 C 43.617188 105.929688 41.203125 103.960938 40.585938 103.386719 C 40.40625 103.226562 40.222656 103.066406 40.039062 102.910156 C 38.535156 101.589844 37.09375 100.242188 35.796875 98.714844 L 35.578125 98.464844 C 35.191406 98.015625 35.023438 97.867188 34.667969 97.441406 C 34.617188 96.839844 34.726562 96.574219 35.089844 96.105469 C 35.53125 95.5 35.914062 94.886719 36.28125 94.234375 C 36.835938 93.242188 37.523438 92.359375 37.964844 91.296875 C 38.445312 90.5 38.84375 89.667969 39.175781 88.800781 C 39.480469 88.023438 40.054688 86.316406 40.226562 85.757812 C 40.601562 84.5 40.882812 83.261719 41.074219 81.964844 C 41.132812 81.554688 41.203125 81.160156 41.300781 80.757812 C 41.660156 79.199219 41.757812 77.683594 41.761719 76.09375 C 41.761719 75.730469 41.765625 75.363281 41.769531 75 C 41.777344 74.226562 41.78125 73.449219 41.785156 72.675781 C 41.789062 71.777344 41.796875 70.878906 41.800781 69.980469 C 41.808594 69.625 41.808594 69.269531 41.808594 68.914062 C 41.816406 67.878906 41.84375 66.84375 41.957031 65.8125 L 42.007812 65.3125 C 42.167969 64.765625 42.421875 64.535156 42.839844 64.164062 C 43.394531 63.320312 43.507812 62.378906 43.617188 61.390625 C 43.6875 60.90625 43.6875 60.90625 43.832031 60.425781 C 44.339844 58.519531 43.9375 56.609375 43.019531 54.902344 C 42.449219 54.007812 41.644531 53.378906 40.632812 53.042969 C 39.429688 52.796875 38.378906 52.863281 37.34375 53.542969 L 37.207031 53.824219 L 36.921875 53.824219 C 37.039062 52.832031 37.628906 52.226562 38.347656 51.601562 C 39.277344 50.957031 40.355469 51.042969 41.429688 51.132812 C 41.867188 51.257812 42.195312 51.433594 42.558594 51.699219 L 42.984375 51.984375 C 44.265625 53.132812 45.261719 55.070312 45.375 56.796875 L 45.660156 56.796875 L 45.703125 56.5 C 45.800781 56.089844 45.800781 56.089844 46 55.691406 C 46.605469 54.453125 46.730469 52.972656 46.355469 51.636719 C 46.136719 50.808594 46.316406 50.332031 46.726562 49.601562 C 47.183594 48.871094 47.707031 48.183594 48.335938 47.59375 C 48.757812 47.199219 49.445312 46.621094 49.824219 46.355469 L 50.148438 46.125 C 51.179688 45.417969 52.246094 44.921875 53.410156 44.476562 L 53.671875 44.375 C 58.402344 42.535156 64.480469 42.742188 69.332031 44.195312 Z M 69.332031 44.195312 " fill-opacity="1" fill-rule="nonzero"/><path fill="#0088ab" d="M 63.246094 34.5625 C 66.308594 35.359375 69.277344 36.066406 72.414062 37.019531 C 75.660156 38.007812 78.71875 38.835938 82.109375 39.980469 C 84.398438 40.757812 86.691406 41.523438 88.988281 42.277344 C 91.15625 42.996094 93.441406 43.9375 95.46875 44.980469 C 95.492188 45.519531 95.488281 46.054688 95.492188 46.59375 C 95.492188 48.199219 95.492188 49.800781 95.492188 51.40625 C 95.492188 52.296875 95.492188 53.191406 95.492188 54.082031 C 95.492188 55.683594 95.492188 57.28125 95.492188 58.878906 C 95.488281 60.324219 95.488281 61.769531 95.492188 63.214844 C 95.492188 64.894531 95.492188 66.574219 95.492188 68.253906 C 95.492188 69.144531 95.492188 70.03125 95.492188 70.921875 C 95.492188 71.757812 95.492188 72.597656 95.492188 73.433594 C 95.492188 73.738281 95.492188 74.046875 95.492188 74.351562 C 95.492188 76.648438 95.492188 78.941406 95.066406 81.203125 L 94.988281 81.625 C 94.640625 83.519531 94.125 85.285156 93.402344 87.066406 C 93.230469 87.492188 93.066406 87.914062 92.914062 88.347656 C 92.46875 89.621094 92.023438 90.777344 91.328125 91.921875 C 90.496094 93.304688 89.664062 94.53125 88.726562 95.816406 L 88.539062 96.074219 C 88.023438 96.792969 87.453125 97.515625 86.875 98.222656 C 86.398438 98.71875 84.914062 100.230469 84.421875 100.726562 C 84.199219 100.914062 84.199219 100.914062 83.914062 100.914062 C 83.777344 100.410156 83.640625 99.90625 83.503906 99.402344 L 83.382812 98.96875 C 83.308594 98.699219 83.238281 98.433594 83.164062 98.164062 C 82.722656 96.441406 81.734375 94.1875 80.683594 92.753906 C 80.308594 92.136719 80.109375 91.503906 79.890625 90.816406 L 79.769531 90.429688 C 79.6875 90.175781 79.605469 89.921875 79.523438 89.667969 C 79.414062 89.320312 79.296875 88.976562 79.179688 88.628906 C 79.011719 88.125 78.875 87.617188 78.757812 87.097656 L 78.652344 86.65625 C 78.421875 85.476562 78.40625 84.34375 78.410156 83.140625 L 78.414062 82.625 C 78.414062 82.207031 78.417969 81.789062 78.421875 81.371094 L 79.582031 80.753906 C 80.863281 80.070312 82.058594 79.019531 83.070312 77.976562 C 83.234375 77.804688 83.394531 77.640625 83.5625 77.480469 C 84.007812 77.035156 84.421875 76.558594 84.773438 75.992188 C 85 75.707031 85.027344 75.59375 85.199219 75.355469 C 85.230469 75.246094 85.273438 75.210938 85.332031 75.066406 C 85.671875 74.183594 86.085938 73.839844 86.917969 73.433594 C 87.761719 73.011719 88.554688 72.605469 89.226562 71.929688 C 89.792969 71.359375 90.34375 70.75 90.8125 70.140625 C 91.449219 69.445312 91.75 68.699219 92.085938 67.816406 C 92.417969 67.15625 92.554688 66.449219 92.671875 65.722656 C 93.058594 62.980469 92.761719 60.84375 91.4375 58.441406 C 90.914062 57.761719 90.195312 57.289062 89.554688 56.734375 C 88.933594 56.195312 88.175781 55.820312 87.773438 55.542969 C 86.984375 55.007812 86.078125 54.660156 85.394531 53.972656 C 85.082031 53.652344 84.957031 53.511719 84.761719 53.050781 C 84.371094 52.128906 84.207031 51.429688 83.914062 50.574219 C 83.246094 48.878906 82.0625 47.34375 80.675781 46.183594 C 78.34375 44.230469 75.988281 42.613281 73.273438 41.261719 C 69.542969 39.417969 65.003906 38.832031 60.890625 38.863281 C 55.128906 38.902344 49.933594 39.6875 45.527344 43.8125 C 44.410156 44.710938 43.390625 45.949219 42.769531 47.246094 C 40.65625 46.824219 38.460938 47.003906 36.570312 48.09375 C 35.59375 48.644531 34.984375 49.449219 34.1875 50.183594 C 32.390625 52.125 32.230469 55.011719 32.296875 57.511719 C 32.429688 60.371094 33.867188 62.65625 35.8125 64.644531 L 36.050781 64.882812 C 36.480469 65.3125 36.894531 65.625 37.414062 65.9375 L 37.414062 66.21875 L 37.699219 66.21875 C 37.601562 68.226562 37.445312 70.226562 37.277344 72.230469 C 37.179688 73.34375 37.089844 74.453125 36.992188 75.566406 C 36.867188 77.039062 36.585938 78.480469 36.335938 79.933594 C 36.148438 81.042969 35.898438 82.121094 35.59375 83.203125 L 35.488281 83.574219 C 35.285156 84.289062 35.03125 84.957031 34.722656 85.628906 C 34.585938 85.933594 34.464844 86.246094 34.351562 86.558594 C 33.632812 88.378906 32.625 90.355469 31.214844 91.710938 C 30.144531 89.734375 29.210938 87.773438 28.539062 85.621094 C 28.132812 84.335938 27.765625 83.039062 27.425781 81.734375 C 26.496094 77.953125 26.632812 74.09375 26.648438 70.230469 C 26.652344 69.339844 26.652344 68.449219 26.652344 67.558594 C 26.65625 66.070312 26.660156 64.582031 26.664062 63.089844 C 26.671875 60.988281 26.675781 58.882812 26.679688 56.777344 C 26.683594 52.84375 26.695312 48.914062 26.707031 44.980469 C 28.871094 43.878906 31.125 43.066406 33.40625 42.246094 C 36.957031 40.960938 40.523438 39.746094 44.101562 38.539062 C 45.59375 38.03125 47.089844 37.589844 48.613281 37.207031 C 51.421875 36.503906 54.230469 35.796875 57.039062 35.089844 C 61.25 34.027344 61.25 34.027344 63.246094 34.5625 Z M 63.246094 34.5625 " fill-opacity="1" fill-rule="nonzero"/><path fill="#014a71" d="M 62.148438 49.867188 C 64.382812 49.785156 66.351562 50.582031 67.996094 52.074219 C 69.417969 53.421875 70.195312 55.117188 70.273438 57.09375 C 70.289062 59.242188 69.617188 61.230469 68.144531 62.820312 C 66.300781 64.570312 64.230469 65.007812 61.785156 64.949219 C 59.15625 64.832031 56.085938 64.003906 54.128906 62.140625 C 53.011719 60.738281 52.59375 59.164062 52.691406 57.398438 C 52.8125 56.332031 53.488281 55.519531 54.273438 54.851562 C 54.78125 54.34375 55.136719 53.734375 55.621094 53.171875 L 55.851562 52.90625 C 56.789062 51.84375 57.742188 51.109375 59.066406 50.601562 L 59.449219 50.449219 C 60.359375 50.097656 61.183594 49.933594 62.148438 49.867188 Z M 62.148438 49.867188 " fill-opacity="1" fill-rule="nonzero"/><path fill="#1dbcd4" d="M 64.742188 53.867188 C 65.660156 54.304688 66.394531 54.691406 66.859375 55.617188 C 67.210938 56.183594 66.859375 58.539062 66.082031 59.9375 C 66.035156 60.035156 65.984375 60.128906 65.9375 60.222656 C 65.707031 60.621094 65.570312 60.773438 65.132812 60.910156 L 64.8125 60.929688 C 64.707031 60.488281 64.675781 60.125 64.683594 59.664062 C 64.691406 58.859375 64.601562 58.300781 64.109375 57.671875 C 63.6875 56.964844 62.257812 56.953125 61.695312 56.964844 C 61.324219 56.96875 60.957031 56.96875 60.585938 56.964844 C 60.445312 56.824219 60.445312 56.824219 60.402344 56.320312 C 60.414062 55.539062 60.683594 54.894531 61.226562 54.332031 C 62.21875 53.480469 63.527344 53.472656 64.742188 53.867188 Z M 64.742188 53.867188 " fill-opacity="1" fill-rule="nonzero"/><g transform="matrix(1, 0, 0, 1, 124, 24)"><g clip-path="url(#68afe033e2)"><g fill="#ffffff" fill-opacity="1"><g transform="translate(1.150003, 80.450419)"><g><path d="M 6.375 0 L 6.375 -74.828125 L 19.109375 -74.828125 L 46.484375 -9.65625 L 46.59375 -9.65625 L 73.875 -74.828125 L 86.609375 -74.828125 L 86.609375 0 L 77.796875 0 L 77.796875 -62.09375 L 77.59375 -62.09375 L 51.15625 0 L 41.8125 0 L 15.390625 -61.984375 L 15.171875 -61.984375 L 15.171875 0 Z M 6.375 0 "/></g></g></g><g fill="#ffffff" fill-opacity="1"><g transform="translate(94.123103, 80.450419)"><g><path d="M 32.796875 2.125 C 27.140625 2.125 22.0625 0.851562 17.5625 -1.6875 C 13.070312 -4.238281 9.550781 -7.742188 7 -12.203125 C 4.457031 -16.660156 3.1875 -21.722656 3.1875 -27.390625 C 3.1875 -32.898438 4.351562 -37.78125 6.6875 -42.03125 C 9.019531 -46.28125 12.253906 -49.625 16.390625 -52.0625 C 20.535156 -54.5 25.257812 -55.71875 30.5625 -55.71875 C 35.800781 -55.71875 40.363281 -54.5 44.25 -52.0625 C 48.144531 -49.625 51.1875 -46.265625 53.375 -41.984375 C 55.570312 -37.703125 56.707031 -32.800781 56.78125 -27.28125 C 56.78125 -26.78125 56.78125 -26.265625 56.78125 -25.734375 C 56.78125 -25.203125 56.742188 -24.65625 56.671875 -24.09375 L 11.5625 -24.09375 C 11.988281 -20.414062 13.15625 -17.144531 15.0625 -14.28125 C 16.976562 -11.414062 19.472656 -9.1875 22.546875 -7.59375 C 25.628906 -6 29.082031 -5.203125 32.90625 -5.203125 C 37.082031 -5.203125 40.832031 -6.171875 44.15625 -8.109375 C 47.476562 -10.054688 49.882812 -12.484375 51.375 -15.390625 L 58.375 -12.53125 C 57.238281 -9.695312 55.414062 -7.164062 52.90625 -4.9375 C 50.394531 -2.707031 47.421875 -0.972656 43.984375 0.265625 C 40.554688 1.503906 36.828125 2.125 32.796875 2.125 Z M 11.671875 -31.203125 L 48.1875 -31.203125 C 47.6875 -36.648438 45.828125 -40.859375 42.609375 -43.828125 C 39.390625 -46.804688 35.34375 -48.296875 30.46875 -48.296875 C 25.507812 -48.296875 21.332031 -46.71875 17.9375 -43.5625 C 14.539062 -40.414062 12.453125 -36.296875 11.671875 -31.203125 Z M 11.671875 -31.203125 "/></g></g></g><g fill="#ffffff" fill-opacity="1"><g transform="translate(155.043841, 80.450419)"><g><path d="M 32.796875 2.125 C 27.140625 2.125 22.0625 0.851562 17.5625 -1.6875 C 13.070312 -4.238281 9.550781 -7.742188 7 -12.203125 C 4.457031 -16.660156 3.1875 -21.722656 3.1875 -27.390625 C 3.1875 -32.898438 4.351562 -37.78125 6.6875 -42.03125 C 9.019531 -46.28125 12.253906 -49.625 16.390625 -52.0625 C 20.535156 -54.5 25.257812 -55.71875 30.5625 -55.71875 C 35.800781 -55.71875 40.363281 -54.5 44.25 -52.0625 C 48.144531 -49.625 51.1875 -46.265625 53.375 -41.984375 C 55.570312 -37.703125 56.707031 -32.800781 56.78125 -27.28125 C 56.78125 -26.78125 56.78125 -26.265625 56.78125 -25.734375 C 56.78125 -25.203125 56.742188 -24.65625 56.671875 -24.09375 L 11.5625 -24.09375 C 11.988281 -20.414062 13.15625 -17.144531 15.0625 -14.28125 C 16.976562 -11.414062 19.472656 -9.1875 22.546875 -7.59375 C 25.628906 -6 29.082031 -5.203125 32.90625 -5.203125 C 37.082031 -5.203125 40.832031 -6.171875 44.15625 -8.109375 C 47.476562 -10.054688 49.882812 -12.484375 51.375 -15.390625 L 58.375 -12.53125 C 57.238281 -9.695312 55.414062 -7.164062 52.90625 -4.9375 C 50.394531 -2.707031 47.421875 -0.972656 43.984375 0.265625 C 40.554688 1.503906 36.828125 2.125 32.796875 2.125 Z M 11.671875 -31.203125 L 48.1875 -31.203125 C 47.6875 -36.648438 45.828125 -40.859375 42.609375 -43.828125 C 39.390625 -46.804688 35.34375 -48.296875 30.46875 -48.296875 C 25.507812 -48.296875 21.332031 -46.71875 17.9375 -43.5625 C 14.539062 -40.414062 12.453125 -36.296875 11.671875 -31.203125 Z M 11.671875 -31.203125 "/></g></g></g><g fill="#ffffff" fill-opacity="1"><g transform="translate(215.964579, 80.450419)"><g><path d="M 28.546875 -55.828125 C 33.148438 -55.828125 36.921875 -54.375 39.859375 -51.46875 C 42.796875 -48.570312 44.507812 -44.4375 45 -39.0625 L 38 -36.71875 C 37.570312 -40.46875 36.421875 -43.332031 34.546875 -45.3125 C 32.671875 -47.300781 30.285156 -48.296875 27.390625 -48.296875 C 23.066406 -48.296875 19.648438 -46.628906 17.140625 -43.296875 C 14.628906 -39.972656 13.375 -35.375 13.375 -29.5 L 13.375 0 L 5.3125 0 L 5.3125 -53.59375 L 12.203125 -53.59375 L 12.953125 -45.21875 L 13.0625 -45.21875 C 14.539062 -48.46875 16.640625 -51.046875 19.359375 -52.953125 C 22.085938 -54.867188 25.148438 -55.828125 28.546875 -55.828125 Z M 28.546875 -55.828125 "/></g></g></g><g fill="#ffffff" fill-opacity="1"><g transform="translate(263.087931, 80.450419)"><g><path d="M 1.0625 0 L 30.140625 -74.828125 L 40.765625 -74.828125 L 69.625 0 L 60.28125 0 L 53.5 -17.9375 L 17.40625 -17.9375 L 10.515625 0 Z M 19.953125 -25.796875 L 50.84375 -25.796875 L 35.5625 -66.125 L 35.34375 -66.125 Z M 19.953125 -25.796875 "/></g></g></g><g fill="#ffffff" fill-opacity="1"><g transform="translate(333.772968, 80.450419)"><g><path d="M 6.375 0 L 6.375 -74.828125 L 37.046875 -74.828125 C 42.421875 -74.828125 47.140625 -73.851562 51.203125 -71.90625 C 55.273438 -69.957031 58.460938 -67.285156 60.765625 -63.890625 C 63.066406 -60.492188 64.21875 -56.566406 64.21875 -52.109375 C 64.21875 -47.722656 63.066406 -43.8125 60.765625 -40.375 C 58.460938 -36.945312 55.257812 -34.273438 51.15625 -32.359375 C 47.050781 -30.453125 42.347656 -29.5 37.046875 -29.5 L 14.96875 -29.5 L 14.96875 0 Z M 14.96875 -37.46875 L 37.046875 -37.46875 C 40.648438 -37.46875 43.832031 -38.085938 46.59375 -39.328125 C 49.351562 -40.566406 51.507812 -42.300781 53.0625 -44.53125 C 54.625 -46.757812 55.40625 -49.285156 55.40625 -52.109375 C 55.40625 -56.503906 53.707031 -60.078125 50.3125 -62.828125 C 46.914062 -65.585938 42.492188 -66.96875 37.046875 -66.96875 L 14.96875 -66.96875 Z M 14.96875 -37.46875 "/></g></g></g><g fill="#ffffff" fill-opacity="1"><g transform="translate(400.106519, 80.450419)"><g><path d="M 6.375 0 L 6.375 -74.828125 L 15.171875 -74.828125 L 15.171875 0 Z M 6.375 0 "/></g></g></g></g></g></svg>