<svg xmlns="http://www.w3.org/2000/svg" xmlns:xlink="http://www.w3.org/1999/xlink" width="250" zoomAndPan="magnify" viewBox="0 0 187.5 74.999997" height="100" preserveAspectRatio="xMidYMid meet" version="1.0"><defs><g/><clipPath id="f1ccc08833"><path d="M 17.890625 19.957031 L 43.324219 19.957031 L 43.324219 49.875 L 17.890625 49.875 Z M 17.890625 19.957031 " clip-rule="nonzero"/></clipPath><clipPath id="11e70a102c"><rect x="0" width="124" y="0" height="32"/></clipPath></defs><g clip-path="url(#f1ccc08833)"><path fill="#014a71" d="M 30.945312 20.023438 C 34.222656 20.90625 37.09375 21.777344 40.128906 22.800781 C 42.945312 23.75 42.878906 23.777344 43.316406 24.03125 C 43.324219 24.210938 43.316406 24.507812 43.316406 24.6875 C 43.316406 24.835938 43.316406 24.984375 43.316406 25.132812 C 43.316406 25.238281 43.316406 25.34375 43.316406 25.449219 C 43.316406 25.734375 43.316406 26.023438 43.316406 26.308594 C 43.316406 26.488281 43.316406 26.667969 43.316406 26.847656 C 43.320312 27.445312 43.320312 28.042969 43.320312 28.636719 L 43.320312 28.832031 C 43.320312 29.351562 43.320312 29.871094 43.320312 30.390625 C 43.320312 30.925781 43.320312 31.457031 43.320312 31.992188 C 43.320312 32.292969 43.320312 32.59375 43.320312 32.890625 C 43.324219 33.175781 43.324219 33.457031 43.320312 33.738281 C 43.320312 33.84375 43.320312 33.945312 43.324219 34.050781 C 43.332031 37.265625 42.546875 40.578125 40.441406 43.082031 L 40.355469 43.195312 C 40.027344 43.609375 39.664062 43.988281 39.300781 44.371094 L 39.183594 44.496094 C 38.972656 44.714844 38.75 44.90625 38.515625 45.097656 C 38.402344 45.1875 38.292969 45.285156 38.183594 45.382812 C 36.453125 46.945312 34.410156 48.097656 32.320312 49.082031 C 31.808594 49.324219 31.292969 49.554688 30.792969 49.8125 C 30.410156 49.886719 30.625 49.898438 30.285156 49.746094 C 30.207031 49.710938 29.566406 49.429688 29.488281 49.394531 C 29.015625 49.179688 28.558594 48.941406 28.09375 48.710938 C 27.308594 48.324219 26.558594 47.890625 25.8125 47.433594 C 25.769531 47.410156 25.726562 47.382812 25.683594 47.355469 C 25.402344 47.183594 25.132812 47 24.863281 46.804688 C 24.800781 46.761719 24.734375 46.714844 24.671875 46.671875 C 24.28125 46.394531 23.894531 46.109375 23.523438 45.804688 C 23.457031 45.75 23.386719 45.699219 23.320312 45.644531 C 23.046875 45.421875 22.789062 45.1875 22.53125 44.945312 C 22.429688 44.851562 22.324219 44.757812 22.21875 44.667969 C 21.859375 44.351562 21.527344 44.003906 21.21875 43.632812 L 21.15625 43.558594 C 18.9375 40.914062 17.882812 37.5625 17.890625 34.128906 L 17.890625 33.800781 C 17.890625 33.503906 17.890625 33.207031 17.890625 32.910156 C 17.890625 32.632812 17.890625 32.355469 17.890625 32.074219 C 17.890625 31.523438 17.890625 30.972656 17.890625 30.421875 C 17.890625 29.6875 17.894531 28.953125 17.894531 28.21875 C 17.894531 26.847656 17.894531 25.566406 17.894531 24.191406 C 20.386719 23.125 22.90625 22.039062 25.507812 21.265625 C 27.101562 20.792969 28.691406 20.398438 30.332031 20 C 30.558594 19.945312 30.71875 19.964844 30.945312 20.023438 Z M 30.945312 20.023438 " fill-opacity="1" fill-rule="nonzero"/></g><path fill="#1cbbd3" d="M 33.289062 24.875 C 33.796875 25.023438 34.285156 25.210938 34.71875 25.523438 C 34.835938 25.609375 34.957031 25.695312 35.078125 25.777344 C 35.550781 26.109375 35.914062 26.582031 36.097656 27.132812 C 36.464844 28.203125 37.316406 28.886719 38.273438 29.394531 C 38.363281 29.441406 38.453125 29.488281 38.539062 29.535156 C 38.652344 29.597656 38.753906 29.65625 38.84375 29.746094 L 38.84375 29.886719 L 38.761719 29.882812 C 38.597656 29.882812 38.433594 29.878906 38.265625 29.878906 C 37.390625 29.871094 36.59375 30.257812 36.867188 31.277344 C 37.097656 31.800781 37.578125 31.871094 37.933594 32.230469 C 37.96875 32.414062 37.957031 32.507812 37.867188 32.671875 C 37.5 33.199219 37.023438 33.5 36.449219 33.75 C 35.480469 34.148438 34.199219 34.285156 33.222656 33.875 C 33.074219 33.800781 32.316406 33.386719 32.71875 33.183594 L 32.832031 33.101562 C 33.058594 32.875 32.117188 32.917969 31.925781 33.085938 C 31.742188 33.300781 31.148438 34.378906 31.734375 34.410156 C 32.070312 34.394531 32.015625 34.03125 32.375 34.308594 C 33.128906 34.871094 34.261719 34.941406 35.160156 34.808594 C 35.695312 34.722656 36.25 34.628906 36.761719 34.445312 C 36.910156 34.398438 37.007812 34.375 37.160156 34.390625 C 37.191406 34.492188 37.203125 34.445312 37.160156 34.621094 C 36.714844 35.261719 36.019531 35.660156 35.351562 36.019531 C 35.101562 36.140625 34.84375 36.226562 34.578125 36.304688 C 34.4375 36.34375 34.296875 36.378906 34.152344 36.414062 C 33.46875 36.566406 32.777344 36.5625 32.082031 36.558594 C 31.324219 36.558594 30.65625 36.539062 29.929688 36.328125 C 29.773438 36.28125 29.617188 36.234375 29.460938 36.183594 C 29.832031 37 30.515625 37.582031 31.328125 37.929688 C 31.820312 38.105469 32.261719 38.167969 32.78125 38.171875 C 32.875 38.171875 32.96875 38.171875 33.0625 38.171875 C 33.429688 38.175781 33.757812 38.140625 34.113281 38.046875 C 34.238281 38.023438 34.304688 38.023438 34.425781 38.066406 L 34.445312 38.234375 C 34.515625 38.773438 34.632812 39.28125 34.800781 39.796875 C 34.835938 39.910156 34.871094 40.027344 34.902344 40.140625 C 34.960938 40.339844 35.039062 40.515625 35.132812 40.703125 C 35.167969 40.765625 35.199219 40.828125 35.230469 40.890625 L 35.28125 40.992188 C 35.769531 41.957031 36.226562 42.953125 36.339844 44.042969 L 36.351562 44.140625 C 36.375 44.367188 36.398438 44.601562 36.339844 44.824219 C 36.195312 44.984375 36.03125 45.058594 35.835938 45.144531 C 35.773438 45.1875 35.714844 45.234375 35.652344 45.28125 C 35.519531 45.375 35.519531 45.375 35.425781 45.375 L 35.425781 45.46875 L 35.273438 45.550781 C 35.0625 45.667969 34.863281 45.796875 34.664062 45.929688 C 34.011719 46.355469 33.347656 46.75 32.664062 47.125 L 32.582031 47.167969 C 32.277344 47.335938 31.980469 47.484375 31.648438 47.582031 L 31.648438 47.449219 C 31.640625 46.644531 31.636719 45.871094 31.402344 45.097656 C 31.367188 44.980469 31.339844 44.859375 31.316406 44.738281 C 31.21875 44.394531 31.039062 44.082031 30.871094 43.765625 L 30.828125 43.679688 C 30.542969 43.152344 30.246094 42.671875 29.78125 42.296875 C 29.726562 42.246094 29.671875 42.199219 29.617188 42.152344 C 29.273438 41.855469 28.910156 41.664062 28.503906 41.46875 C 28.414062 41.421875 28.320312 41.375 28.230469 41.332031 L 28.316406 41.453125 C 28.941406 42.367188 29.382812 43.394531 29.671875 44.46875 L 29.699219 44.566406 C 29.894531 45.316406 29.933594 46.035156 29.925781 46.804688 C 29.925781 46.898438 29.925781 46.992188 29.921875 47.085938 C 29.921875 47.3125 29.917969 47.539062 29.917969 47.765625 C 29.753906 47.710938 29.601562 47.65625 29.453125 47.578125 C 29.261719 47.480469 29.066406 47.386719 28.871094 47.292969 C 28.429688 47.085938 28.019531 46.835938 27.59375 46.605469 C 27 46.277344 26.46875 45.929688 25.921875 45.570312 C 25.6875 45.417969 25.449219 45.265625 25.226562 45.097656 C 24.976562 44.914062 24.195312 44.273438 23.996094 44.089844 C 23.9375 44.035156 23.878906 43.984375 23.820312 43.933594 C 23.332031 43.503906 22.867188 43.066406 22.445312 42.570312 L 22.375 42.488281 C 22.25 42.34375 22.195312 42.296875 22.082031 42.15625 C 22.066406 41.960938 22.101562 41.878906 22.21875 41.722656 C 22.363281 41.527344 22.484375 41.328125 22.605469 41.117188 C 22.785156 40.796875 23.007812 40.507812 23.148438 40.164062 C 23.304688 39.90625 23.433594 39.636719 23.539062 39.355469 C 23.636719 39.101562 23.824219 38.546875 23.878906 38.367188 C 24 37.957031 24.09375 37.554688 24.152344 37.132812 C 24.171875 37 24.195312 36.871094 24.226562 36.742188 C 24.34375 36.238281 24.375 35.746094 24.375 35.230469 C 24.375 35.109375 24.375 34.992188 24.378906 34.875 C 24.378906 34.621094 24.382812 34.371094 24.382812 34.121094 C 24.382812 33.828125 24.386719 33.535156 24.386719 33.246094 C 24.390625 33.128906 24.390625 33.015625 24.390625 32.898438 C 24.394531 32.5625 24.402344 32.226562 24.4375 31.890625 L 24.453125 31.730469 C 24.507812 31.550781 24.589844 31.476562 24.722656 31.355469 C 24.902344 31.082031 24.941406 30.777344 24.976562 30.457031 C 24.996094 30.300781 24.996094 30.300781 25.042969 30.144531 C 25.210938 29.523438 25.078125 28.902344 24.78125 28.351562 C 24.597656 28.058594 24.335938 27.855469 24.011719 27.746094 C 23.621094 27.667969 23.28125 27.6875 22.949219 27.910156 L 22.902344 28 L 22.8125 28 C 22.847656 27.679688 23.039062 27.480469 23.273438 27.277344 C 23.570312 27.070312 23.921875 27.097656 24.269531 27.128906 C 24.410156 27.167969 24.515625 27.226562 24.632812 27.3125 L 24.769531 27.402344 C 25.183594 27.777344 25.507812 28.40625 25.542969 28.964844 L 25.636719 28.964844 L 25.648438 28.867188 C 25.679688 28.734375 25.679688 28.734375 25.746094 28.605469 C 25.941406 28.203125 25.980469 27.722656 25.859375 27.292969 C 25.789062 27.019531 25.847656 26.867188 25.980469 26.628906 C 26.128906 26.394531 26.296875 26.167969 26.5 25.976562 C 26.636719 25.847656 26.859375 25.664062 26.980469 25.578125 L 27.085938 25.5 C 27.417969 25.273438 27.765625 25.113281 28.140625 24.96875 L 28.226562 24.933594 C 29.753906 24.335938 31.71875 24.402344 33.289062 24.875 Z M 33.289062 24.875 " fill-opacity="1" fill-rule="nonzero"/><path fill="#0088ab" d="M 31.320312 21.75 C 32.308594 22.007812 33.269531 22.234375 34.28125 22.546875 C 35.332031 22.867188 36.320312 23.136719 37.417969 23.507812 C 38.15625 23.757812 38.898438 24.007812 39.640625 24.253906 C 40.339844 24.484375 41.078125 24.792969 41.734375 25.128906 C 41.742188 25.304688 41.742188 25.480469 41.742188 25.652344 C 41.742188 26.175781 41.742188 26.695312 41.742188 27.214844 C 41.742188 27.503906 41.742188 27.796875 41.742188 28.085938 C 41.742188 28.605469 41.742188 29.121094 41.742188 29.640625 C 41.742188 30.109375 41.742188 30.578125 41.742188 31.046875 C 41.742188 31.59375 41.742188 32.140625 41.742188 32.683594 C 41.742188 32.972656 41.742188 33.261719 41.742188 33.550781 C 41.742188 33.820312 41.742188 34.09375 41.742188 34.367188 C 41.742188 34.464844 41.742188 34.566406 41.742188 34.664062 C 41.742188 35.410156 41.742188 36.152344 41.605469 36.886719 L 41.582031 37.023438 C 41.46875 37.640625 41.300781 38.210938 41.066406 38.789062 C 41.011719 38.929688 40.957031 39.066406 40.910156 39.207031 C 40.765625 39.621094 40.621094 39.996094 40.398438 40.367188 C 40.128906 40.816406 39.859375 41.214844 39.554688 41.628906 L 39.496094 41.714844 C 39.328125 41.949219 39.144531 42.183594 38.957031 42.410156 C 38.804688 42.574219 38.324219 43.0625 38.164062 43.226562 C 38.09375 43.285156 38.09375 43.285156 38 43.285156 C 37.957031 43.121094 37.910156 42.957031 37.867188 42.792969 L 37.828125 42.652344 C 37.804688 42.566406 37.78125 42.480469 37.757812 42.394531 C 37.617188 41.832031 37.296875 41.101562 36.957031 40.636719 C 36.835938 40.4375 36.769531 40.230469 36.699219 40.007812 L 36.660156 39.882812 C 36.632812 39.800781 36.609375 39.71875 36.582031 39.636719 C 36.546875 39.523438 36.507812 39.410156 36.46875 39.296875 C 36.417969 39.132812 36.371094 38.96875 36.332031 38.800781 L 36.300781 38.65625 C 36.226562 38.273438 36.21875 37.90625 36.222656 37.515625 L 36.222656 37.347656 C 36.222656 37.214844 36.222656 37.078125 36.226562 36.941406 L 36.601562 36.742188 C 37.015625 36.519531 37.402344 36.179688 37.726562 35.839844 C 37.78125 35.785156 37.832031 35.730469 37.886719 35.679688 C 38.03125 35.535156 38.164062 35.378906 38.277344 35.195312 C 38.351562 35.101562 38.359375 35.066406 38.414062 34.988281 C 38.425781 34.953125 38.441406 34.941406 38.457031 34.894531 C 38.570312 34.609375 38.703125 34.496094 38.972656 34.363281 C 39.242188 34.230469 39.5 34.097656 39.71875 33.875 C 39.902344 33.691406 40.078125 33.496094 40.230469 33.296875 C 40.4375 33.070312 40.535156 32.828125 40.640625 32.542969 C 40.75 32.328125 40.792969 32.097656 40.832031 31.863281 C 40.957031 30.972656 40.859375 30.277344 40.433594 29.5 C 40.261719 29.277344 40.03125 29.125 39.824219 28.945312 C 39.621094 28.769531 39.378906 28.648438 39.25 28.558594 C 38.992188 28.386719 38.699219 28.269531 38.480469 28.046875 C 38.378906 27.945312 38.339844 27.898438 38.273438 27.75 C 38.148438 27.449219 38.097656 27.222656 38 26.945312 C 37.785156 26.394531 37.402344 25.898438 36.953125 25.519531 C 36.199219 24.886719 35.4375 24.363281 34.5625 23.921875 C 33.355469 23.324219 31.886719 23.132812 30.558594 23.144531 C 28.695312 23.15625 27.015625 23.410156 25.59375 24.75 C 25.230469 25.042969 24.902344 25.445312 24.703125 25.863281 C 24.019531 25.726562 23.308594 25.785156 22.699219 26.140625 C 22.382812 26.320312 22.183594 26.578125 21.925781 26.820312 C 21.347656 27.449219 21.292969 28.386719 21.316406 29.199219 C 21.359375 30.125 21.824219 30.867188 22.453125 31.511719 L 22.527344 31.589844 C 22.667969 31.730469 22.800781 31.832031 22.96875 31.933594 L 22.96875 32.023438 L 23.0625 32.023438 C 23.03125 32.675781 22.980469 33.324219 22.925781 33.972656 C 22.894531 34.335938 22.867188 34.695312 22.835938 35.058594 C 22.792969 35.535156 22.703125 36.003906 22.621094 36.476562 C 22.5625 36.835938 22.480469 37.183594 22.382812 37.539062 L 22.347656 37.65625 C 22.28125 37.890625 22.199219 38.105469 22.101562 38.324219 C 22.054688 38.421875 22.015625 38.523438 21.980469 38.625 C 21.75 39.214844 21.421875 39.859375 20.964844 40.296875 C 20.621094 39.65625 20.316406 39.019531 20.101562 38.320312 C 19.96875 37.90625 19.851562 37.484375 19.742188 37.058594 C 19.441406 35.832031 19.484375 34.582031 19.492188 33.324219 C 19.492188 33.035156 19.492188 32.746094 19.492188 32.457031 C 19.492188 31.976562 19.492188 31.492188 19.496094 31.007812 C 19.496094 30.324219 19.5 29.640625 19.5 28.957031 C 19.5 27.683594 19.503906 26.40625 19.507812 25.128906 C 20.210938 24.773438 20.9375 24.507812 21.675781 24.242188 C 22.824219 23.824219 23.976562 23.429688 25.132812 23.039062 C 25.613281 22.875 26.097656 22.730469 26.589844 22.605469 C 27.5 22.378906 28.40625 22.148438 29.3125 21.917969 C 30.675781 21.574219 30.675781 21.574219 31.320312 21.746094 Z M 31.320312 21.75 " fill-opacity="1" fill-rule="nonzero"/><path fill="#014a71" d="M 30.964844 26.714844 C 31.6875 26.691406 32.324219 26.949219 32.855469 27.433594 C 33.316406 27.871094 33.566406 28.421875 33.589844 29.0625 C 33.597656 29.757812 33.378906 30.402344 32.902344 30.921875 C 32.308594 31.488281 31.636719 31.628906 30.847656 31.609375 C 29.996094 31.574219 29.003906 31.304688 28.375 30.699219 C 28.011719 30.246094 27.878906 29.734375 27.910156 29.160156 C 27.949219 28.816406 28.167969 28.550781 28.417969 28.335938 C 28.585938 28.167969 28.699219 27.972656 28.855469 27.789062 L 28.929688 27.703125 C 29.230469 27.355469 29.539062 27.121094 29.96875 26.953125 L 30.09375 26.90625 C 30.386719 26.789062 30.652344 26.738281 30.964844 26.714844 Z M 30.964844 26.714844 " fill-opacity="1" fill-rule="nonzero"/><path fill="#1dbcd4" d="M 31.804688 28.015625 C 32.101562 28.15625 32.335938 28.28125 32.488281 28.582031 C 32.601562 28.765625 32.488281 29.53125 32.238281 29.984375 C 32.222656 30.015625 32.203125 30.046875 32.1875 30.078125 C 32.117188 30.207031 32.070312 30.253906 31.929688 30.300781 L 31.828125 30.304688 C 31.792969 30.164062 31.78125 30.046875 31.785156 29.894531 C 31.789062 29.632812 31.757812 29.453125 31.597656 29.25 C 31.460938 29.019531 31 29.015625 30.820312 29.019531 C 30.699219 29.019531 30.582031 29.019531 30.460938 29.019531 C 30.414062 28.972656 30.414062 28.972656 30.402344 28.808594 C 30.40625 28.558594 30.492188 28.347656 30.667969 28.164062 C 30.988281 27.890625 31.410156 27.886719 31.804688 28.015625 Z M 31.804688 28.015625 " fill-opacity="1" fill-rule="nonzero"/><g transform="matrix(1, 0, 0, 1, 57, 21)"><g clip-path="url(#11e70a102c)"><g fill="#ffffff" fill-opacity="1"><g transform="translate(1.23514, 24.02558)"><g><path d="M 1.84375 0 L 1.84375 -21.640625 L 5.53125 -21.640625 L 13.4375 -2.796875 L 13.46875 -2.796875 L 21.359375 -21.640625 L 25.046875 -21.640625 L 25.046875 0 L 22.5 0 L 22.5 -17.953125 L 22.4375 -17.953125 L 14.796875 0 L 12.09375 0 L 4.453125 -17.921875 L 4.390625 -17.921875 L 4.390625 0 Z M 1.84375 0 "/></g></g></g><g fill="#ffffff" fill-opacity="1"><g transform="translate(28.121862, 24.02558)"><g><path d="M 9.484375 0.609375 C 7.847656 0.609375 6.378906 0.242188 5.078125 -0.484375 C 3.773438 -1.222656 2.753906 -2.238281 2.015625 -3.53125 C 1.285156 -4.820312 0.921875 -6.285156 0.921875 -7.921875 C 0.921875 -9.515625 1.257812 -10.925781 1.9375 -12.15625 C 2.613281 -13.382812 3.546875 -14.347656 4.734375 -15.046875 C 5.929688 -15.753906 7.300781 -16.109375 8.84375 -16.109375 C 10.351562 -16.109375 11.671875 -15.753906 12.796875 -15.046875 C 13.921875 -14.347656 14.800781 -13.378906 15.4375 -12.140625 C 16.070312 -10.898438 16.398438 -9.484375 16.421875 -7.890625 C 16.421875 -7.742188 16.421875 -7.59375 16.421875 -7.4375 C 16.421875 -7.289062 16.410156 -7.132812 16.390625 -6.96875 L 3.34375 -6.96875 C 3.46875 -5.90625 3.804688 -4.957031 4.359375 -4.125 C 4.910156 -3.300781 5.628906 -2.65625 6.515625 -2.1875 C 7.410156 -1.726562 8.410156 -1.5 9.515625 -1.5 C 10.722656 -1.5 11.804688 -1.78125 12.765625 -2.34375 C 13.722656 -2.90625 14.421875 -3.609375 14.859375 -4.453125 L 16.875 -3.625 C 16.550781 -2.800781 16.023438 -2.066406 15.296875 -1.421875 C 14.566406 -0.773438 13.707031 -0.273438 12.71875 0.078125 C 11.726562 0.429688 10.648438 0.609375 9.484375 0.609375 Z M 3.375 -9.015625 L 13.9375 -9.015625 C 13.789062 -10.597656 13.25 -11.816406 12.3125 -12.671875 C 11.382812 -13.535156 10.21875 -13.96875 8.8125 -13.96875 C 7.375 -13.96875 6.164062 -13.507812 5.1875 -12.59375 C 4.207031 -11.6875 3.601562 -10.492188 3.375 -9.015625 Z M 3.375 -9.015625 "/></g></g></g><g fill="#ffffff" fill-opacity="1"><g transform="translate(45.739419, 24.02558)"><g><path d="M 9.484375 0.609375 C 7.847656 0.609375 6.378906 0.242188 5.078125 -0.484375 C 3.773438 -1.222656 2.753906 -2.238281 2.015625 -3.53125 C 1.285156 -4.820312 0.921875 -6.285156 0.921875 -7.921875 C 0.921875 -9.515625 1.257812 -10.925781 1.9375 -12.15625 C 2.613281 -13.382812 3.546875 -14.347656 4.734375 -15.046875 C 5.929688 -15.753906 7.300781 -16.109375 8.84375 -16.109375 C 10.351562 -16.109375 11.671875 -15.753906 12.796875 -15.046875 C 13.921875 -14.347656 14.800781 -13.378906 15.4375 -12.140625 C 16.070312 -10.898438 16.398438 -9.484375 16.421875 -7.890625 C 16.421875 -7.742188 16.421875 -7.59375 16.421875 -7.4375 C 16.421875 -7.289062 16.410156 -7.132812 16.390625 -6.96875 L 3.34375 -6.96875 C 3.46875 -5.90625 3.804688 -4.957031 4.359375 -4.125 C 4.910156 -3.300781 5.628906 -2.65625 6.515625 -2.1875 C 7.410156 -1.726562 8.410156 -1.5 9.515625 -1.5 C 10.722656 -1.5 11.804688 -1.78125 12.765625 -2.34375 C 13.722656 -2.90625 14.421875 -3.609375 14.859375 -4.453125 L 16.875 -3.625 C 16.550781 -2.800781 16.023438 -2.066406 15.296875 -1.421875 C 14.566406 -0.773438 13.707031 -0.273438 12.71875 0.078125 C 11.726562 0.429688 10.648438 0.609375 9.484375 0.609375 Z M 3.375 -9.015625 L 13.9375 -9.015625 C 13.789062 -10.597656 13.25 -11.816406 12.3125 -12.671875 C 11.382812 -13.535156 10.21875 -13.96875 8.8125 -13.96875 C 7.375 -13.96875 6.164062 -13.507812 5.1875 -12.59375 C 4.207031 -11.6875 3.601562 -10.492188 3.375 -9.015625 Z M 3.375 -9.015625 "/></g></g></g><g fill="#ffffff" fill-opacity="1"><g transform="translate(63.356976, 24.02558)"><g><path d="M 8.25 -16.140625 C 9.582031 -16.140625 10.671875 -15.71875 11.515625 -14.875 C 12.367188 -14.039062 12.867188 -12.847656 13.015625 -11.296875 L 10.984375 -10.625 C 10.859375 -11.707031 10.523438 -12.535156 9.984375 -13.109375 C 9.441406 -13.679688 8.753906 -13.96875 7.921875 -13.96875 C 6.671875 -13.96875 5.679688 -13.484375 4.953125 -12.515625 C 4.222656 -11.554688 3.859375 -10.226562 3.859375 -8.53125 L 3.859375 0 L 1.53125 0 L 1.53125 -15.5 L 3.53125 -15.5 L 3.75 -13.078125 L 3.78125 -13.078125 C 4.207031 -14.015625 4.8125 -14.757812 5.59375 -15.3125 C 6.382812 -15.863281 7.269531 -16.140625 8.25 -16.140625 Z M 8.25 -16.140625 "/></g></g></g><g fill="#ffffff" fill-opacity="1"><g transform="translate(76.984492, 24.02558)"><g><path d="M 0.3125 0 L 8.71875 -21.640625 L 11.78125 -21.640625 L 20.125 0 L 17.4375 0 L 15.46875 -5.1875 L 5.03125 -5.1875 L 3.03125 0 Z M 5.765625 -7.453125 L 14.703125 -7.453125 L 10.28125 -19.125 L 10.21875 -19.125 Z M 5.765625 -7.453125 "/></g></g></g><g fill="#ffffff" fill-opacity="1"><g transform="translate(97.425769, 24.02558)"><g><path d="M 1.84375 0 L 1.84375 -21.640625 L 10.703125 -21.640625 C 12.265625 -21.640625 13.632812 -21.359375 14.8125 -20.796875 C 15.988281 -20.234375 16.90625 -19.457031 17.5625 -18.46875 C 18.226562 -17.488281 18.5625 -16.351562 18.5625 -15.0625 C 18.5625 -13.800781 18.226562 -12.671875 17.5625 -11.671875 C 16.90625 -10.679688 15.984375 -9.910156 14.796875 -9.359375 C 13.609375 -8.804688 12.242188 -8.53125 10.703125 -8.53125 L 4.328125 -8.53125 L 4.328125 0 Z M 4.328125 -10.828125 L 10.703125 -10.828125 C 11.753906 -10.828125 12.675781 -11.003906 13.46875 -11.359375 C 14.269531 -11.722656 14.894531 -12.226562 15.34375 -12.875 C 15.789062 -13.519531 16.015625 -14.25 16.015625 -15.0625 C 16.015625 -16.332031 15.523438 -17.363281 14.546875 -18.15625 C 13.566406 -18.957031 12.285156 -19.359375 10.703125 -19.359375 L 4.328125 -19.359375 Z M 4.328125 -10.828125 "/></g></g></g><g fill="#ffffff" fill-opacity="1"><g transform="translate(116.608647, 24.02558)"><g><path d="M 1.84375 0 L 1.84375 -21.640625 L 4.390625 -21.640625 L 4.390625 0 Z M 1.84375 0 "/></g></g></g></g></g></svg>