<svg xmlns="http://www.w3.org/2000/svg" xmlns:xlink="http://www.w3.org/1999/xlink" width="500" zoomAndPan="magnify" viewBox="0 0 375 149.999998" height="200" preserveAspectRatio="xMidYMid meet" version="1.0"><defs><g/><clipPath id="727f89807c"><path d="M 35.875 39.820312 L 87.625 39.820312 L 87.625 99.820312 L 35.875 99.820312 Z M 35.875 39.820312 " clip-rule="nonzero"/></clipPath><clipPath id="b1b283637f"><rect x="0" width="246" y="0" height="63"/></clipPath></defs><g clip-path="url(#727f89807c)"><path fill="#014a71" d="M 62.4375 39.957031 C 69.113281 41.722656 74.949219 43.472656 81.125 45.519531 C 86.859375 47.421875 86.71875 47.480469 87.613281 47.988281 C 87.628906 48.351562 87.613281 48.945312 87.613281 49.308594 C 87.617188 49.605469 87.617188 49.898438 87.617188 50.195312 C 87.617188 50.40625 87.617188 50.617188 87.617188 50.828125 C 87.617188 51.40625 87.617188 51.980469 87.617188 52.558594 C 87.617188 52.917969 87.617188 53.28125 87.617188 53.640625 C 87.617188 54.835938 87.617188 56.03125 87.617188 57.226562 L 87.617188 57.617188 C 87.617188 58.660156 87.621094 59.699219 87.621094 60.742188 C 87.621094 61.816406 87.621094 62.886719 87.621094 63.957031 C 87.621094 64.558594 87.621094 65.15625 87.625 65.757812 C 87.625 66.328125 87.625 66.894531 87.625 67.460938 C 87.625 67.667969 87.625 67.871094 87.625 68.078125 C 87.640625 74.53125 86.046875 81.171875 81.761719 86.195312 L 81.585938 86.421875 C 80.921875 87.25 80.183594 88.011719 79.445312 88.777344 L 79.199219 89.03125 C 78.773438 89.46875 78.320312 89.855469 77.839844 90.234375 C 77.613281 90.421875 77.390625 90.613281 77.171875 90.808594 C 73.652344 93.941406 69.492188 96.253906 65.234375 98.230469 C 64.195312 98.710938 63.148438 99.171875 62.125 99.691406 C 61.351562 99.835938 61.789062 99.863281 61.097656 99.554688 C 60.941406 99.488281 59.632812 98.921875 59.476562 98.855469 C 58.515625 98.425781 57.582031 97.945312 56.632812 97.488281 C 55.042969 96.707031 53.515625 95.835938 51.996094 94.925781 C 51.910156 94.871094 51.820312 94.820312 51.734375 94.765625 C 51.164062 94.417969 50.613281 94.050781 50.066406 93.664062 C 49.9375 93.570312 49.804688 93.480469 49.675781 93.390625 C 48.878906 92.839844 48.097656 92.265625 47.339844 91.65625 C 47.199219 91.546875 47.0625 91.441406 46.925781 91.328125 C 46.367188 90.886719 45.839844 90.414062 45.320312 89.933594 C 45.109375 89.742188 44.898438 89.558594 44.683594 89.375 C 43.953125 88.742188 43.273438 88.042969 42.652344 87.300781 L 42.527344 87.152344 C 38.007812 81.84375 35.863281 75.125 35.875 68.238281 L 35.875 67.582031 C 35.875 66.988281 35.875 66.390625 35.878906 65.796875 C 35.878906 65.238281 35.878906 64.679688 35.878906 64.121094 C 35.878906 63.015625 35.878906 61.910156 35.878906 60.804688 C 35.878906 59.332031 35.882812 57.859375 35.882812 56.386719 C 35.882812 53.636719 35.882812 51.066406 35.882812 48.3125 C 40.957031 46.175781 46.085938 43.992188 51.375 42.449219 C 54.621094 41.5 57.851562 40.707031 61.1875 39.910156 C 61.65625 39.796875 61.984375 39.832031 62.4375 39.957031 Z M 62.4375 39.957031 " fill-opacity="1" fill-rule="nonzero"/></g><path fill="#1cbbd3" d="M 67.207031 49.683594 C 68.242188 49.976562 69.234375 50.355469 70.117188 50.984375 C 70.359375 51.15625 70.605469 51.324219 70.851562 51.492188 C 71.808594 52.160156 72.546875 53.105469 72.925781 54.210938 C 73.675781 56.355469 75.40625 57.722656 77.355469 58.742188 C 77.535156 58.839844 77.714844 58.933594 77.894531 59.03125 C 78.125 59.152344 78.328125 59.269531 78.511719 59.453125 L 78.511719 59.730469 L 78.347656 59.726562 C 78.011719 59.722656 77.675781 59.71875 77.339844 59.714844 C 75.558594 59.699219 73.933594 60.476562 74.492188 62.519531 C 74.964844 63.566406 75.9375 63.710938 76.660156 64.429688 C 76.730469 64.800781 76.710938 64.984375 76.523438 65.316406 C 75.777344 66.375 74.808594 66.980469 73.640625 67.484375 C 71.671875 68.277344 69.0625 68.554688 67.078125 67.730469 C 66.769531 67.585938 65.230469 66.746094 66.046875 66.34375 L 66.277344 66.179688 C 66.742188 65.722656 64.828125 65.808594 64.433594 66.152344 C 64.0625 66.574219 62.851562 68.738281 64.042969 68.804688 C 64.726562 68.773438 64.617188 68.046875 65.347656 68.601562 C 66.882812 69.730469 69.1875 69.867188 71.019531 69.605469 C 72.109375 69.429688 73.234375 69.242188 74.277344 68.878906 C 74.578125 68.777344 74.773438 68.730469 75.085938 68.761719 C 75.152344 68.964844 75.175781 68.878906 75.085938 69.222656 C 74.179688 70.507812 72.769531 71.308594 71.40625 72.027344 C 70.898438 72.277344 70.375 72.445312 69.835938 72.597656 C 69.546875 72.683594 69.257812 72.753906 68.964844 72.820312 C 67.578125 73.128906 66.167969 73.117188 64.757812 73.117188 C 63.214844 73.109375 61.851562 73.070312 60.375 72.648438 C 60.054688 72.558594 59.738281 72.460938 59.421875 72.359375 C 60.171875 73.992188 61.566406 75.167969 63.222656 75.859375 C 64.222656 76.214844 65.117188 76.339844 66.179688 76.34375 C 66.367188 76.34375 66.558594 76.347656 66.746094 76.347656 C 67.496094 76.355469 68.160156 76.28125 68.882812 76.09375 C 69.144531 76.046875 69.28125 76.046875 69.523438 76.136719 L 69.5625 76.476562 C 69.707031 77.558594 69.945312 78.570312 70.289062 79.605469 C 70.359375 79.835938 70.425781 80.066406 70.492188 80.296875 C 70.613281 80.695312 70.769531 81.050781 70.964844 81.417969 C 71.03125 81.546875 71.097656 81.675781 71.160156 81.800781 L 71.265625 82.007812 C 72.257812 83.9375 73.183594 85.9375 73.417969 88.121094 L 73.4375 88.316406 C 73.488281 88.769531 73.539062 89.242188 73.417969 89.6875 C 73.125 90.011719 72.792969 90.15625 72.394531 90.332031 C 72.265625 90.417969 72.140625 90.507812 72.019531 90.601562 C 71.746094 90.792969 71.746094 90.792969 71.5625 90.792969 L 71.5625 90.976562 L 71.242188 91.144531 C 70.816406 91.378906 70.410156 91.640625 70.003906 91.90625 C 68.679688 92.761719 67.324219 93.554688 65.9375 94.300781 L 65.769531 94.390625 C 65.148438 94.726562 64.550781 95.019531 63.871094 95.214844 L 63.867188 94.953125 C 63.859375 93.339844 63.847656 91.789062 63.367188 90.234375 C 63.296875 90 63.246094 89.757812 63.191406 89.519531 C 62.996094 88.828125 62.632812 88.195312 62.292969 87.566406 L 62.199219 87.390625 C 61.625 86.332031 61.019531 85.375 60.070312 84.617188 C 59.960938 84.523438 59.847656 84.425781 59.738281 84.328125 C 59.039062 83.738281 58.296875 83.355469 57.472656 82.957031 C 57.289062 82.867188 57.101562 82.773438 56.917969 82.683594 L 57.09375 82.929688 C 58.367188 84.765625 59.265625 86.824219 59.847656 88.972656 L 59.902344 89.167969 C 60.300781 90.671875 60.386719 92.113281 60.367188 93.664062 C 60.363281 93.847656 60.363281 94.039062 60.359375 94.222656 C 60.359375 94.679688 60.355469 95.132812 60.347656 95.585938 C 60.019531 95.480469 59.710938 95.371094 59.402344 95.210938 C 59.011719 95.011719 58.617188 94.824219 58.21875 94.640625 C 57.324219 94.222656 56.488281 93.722656 55.621094 93.257812 C 54.414062 92.605469 53.335938 91.902344 52.21875 91.183594 C 51.738281 90.875 51.257812 90.574219 50.800781 90.242188 C 50.292969 89.867188 48.703125 88.585938 48.300781 88.210938 C 48.179688 88.109375 48.058594 88.003906 47.941406 87.902344 C 46.949219 87.042969 46 86.164062 45.148438 85.167969 L 45.003906 85.007812 C 44.75 84.714844 44.640625 84.617188 44.40625 84.339844 C 44.371094 83.949219 44.445312 83.777344 44.683594 83.472656 C 44.976562 83.078125 45.226562 82.679688 45.46875 82.253906 C 45.832031 81.609375 46.285156 81.035156 46.574219 80.34375 C 46.890625 79.824219 47.152344 79.28125 47.371094 78.71875 C 47.570312 78.210938 47.949219 77.101562 48.0625 76.734375 C 48.308594 75.917969 48.496094 75.113281 48.617188 74.265625 C 48.660156 74 48.703125 73.742188 48.769531 73.480469 C 49.003906 72.46875 49.070312 71.480469 49.070312 70.445312 C 49.074219 70.210938 49.074219 69.972656 49.074219 69.734375 C 49.082031 69.230469 49.085938 68.726562 49.085938 68.222656 C 49.089844 67.636719 49.09375 67.050781 49.097656 66.464844 C 49.101562 66.234375 49.101562 66.003906 49.101562 65.773438 C 49.109375 65.097656 49.125 64.425781 49.199219 63.753906 L 49.234375 63.425781 C 49.339844 63.070312 49.507812 62.921875 49.78125 62.679688 C 50.144531 62.128906 50.21875 61.519531 50.292969 60.875 C 50.339844 60.558594 50.339844 60.558594 50.433594 60.246094 C 50.769531 59.003906 50.503906 57.761719 49.898438 56.652344 C 49.523438 56.070312 48.996094 55.660156 48.328125 55.441406 C 47.539062 55.28125 46.847656 55.324219 46.167969 55.765625 L 46.074219 55.949219 L 45.890625 55.949219 C 45.964844 55.304688 46.351562 54.910156 46.828125 54.503906 C 47.4375 54.085938 48.148438 54.140625 48.855469 54.199219 C 49.140625 54.28125 49.355469 54.394531 49.597656 54.566406 L 49.875 54.753906 C 50.71875 55.5 51.375 56.761719 51.449219 57.886719 L 51.636719 57.886719 L 51.664062 57.691406 C 51.730469 57.425781 51.730469 57.425781 51.859375 57.167969 C 52.257812 56.359375 52.339844 55.394531 52.09375 54.527344 C 51.949219 53.984375 52.066406 53.675781 52.335938 53.203125 C 52.636719 52.726562 52.984375 52.277344 53.398438 51.894531 C 53.675781 51.636719 54.125 51.261719 54.375 51.089844 L 54.589844 50.9375 C 55.265625 50.480469 55.96875 50.15625 56.734375 49.867188 L 56.90625 49.800781 C 60.015625 48.601562 64.015625 48.734375 67.207031 49.683594 Z M 67.207031 49.683594 " fill-opacity="1" fill-rule="nonzero"/><path fill="#0088ab" d="M 63.203125 43.414062 C 65.214844 43.929688 67.167969 44.390625 69.230469 45.011719 C 71.367188 45.652344 73.378906 46.191406 75.609375 46.941406 C 77.117188 47.445312 78.621094 47.945312 80.132812 48.433594 C 81.558594 48.902344 83.0625 49.515625 84.398438 50.191406 C 84.410156 50.542969 84.410156 50.894531 84.410156 51.242188 C 84.414062 52.289062 84.410156 53.332031 84.410156 54.375 C 84.410156 54.957031 84.410156 55.539062 84.410156 56.117188 C 84.410156 57.160156 84.410156 58.199219 84.410156 59.242188 C 84.410156 60.179688 84.410156 61.121094 84.410156 62.0625 C 84.410156 63.15625 84.410156 64.25 84.410156 65.34375 C 84.410156 65.921875 84.410156 66.5 84.410156 67.078125 C 84.410156 67.625 84.410156 68.167969 84.410156 68.714844 C 84.410156 68.914062 84.410156 69.113281 84.410156 69.3125 C 84.414062 70.808594 84.410156 72.296875 84.132812 73.773438 L 84.082031 74.046875 C 83.851562 75.277344 83.515625 76.429688 83.039062 77.589844 C 82.925781 77.867188 82.816406 78.140625 82.714844 78.421875 C 82.421875 79.25 82.128906 80.003906 81.671875 80.75 C 81.125 81.648438 80.578125 82.445312 79.960938 83.285156 L 79.839844 83.453125 C 79.5 83.917969 79.125 84.390625 78.746094 84.851562 C 78.429688 85.171875 77.453125 86.15625 77.128906 86.480469 C 76.984375 86.601562 76.984375 86.601562 76.796875 86.601562 C 76.707031 86.273438 76.617188 85.945312 76.527344 85.617188 L 76.449219 85.335938 C 76.398438 85.160156 76.351562 84.988281 76.304688 84.8125 C 76.015625 83.691406 75.363281 82.222656 74.671875 81.289062 C 74.425781 80.886719 74.292969 80.476562 74.152344 80.027344 L 74.070312 79.777344 C 74.015625 79.613281 73.960938 79.445312 73.910156 79.28125 C 73.835938 79.054688 73.761719 78.832031 73.683594 78.605469 C 73.574219 78.277344 73.480469 77.945312 73.40625 77.609375 L 73.335938 77.320312 C 73.183594 76.550781 73.171875 75.816406 73.175781 75.035156 L 73.179688 74.699219 C 73.179688 74.425781 73.183594 74.152344 73.183594 73.882812 L 73.949219 73.480469 C 74.789062 73.035156 75.578125 72.347656 76.242188 71.671875 C 76.347656 71.558594 76.457031 71.453125 76.566406 71.347656 C 76.859375 71.058594 77.132812 70.746094 77.363281 70.378906 C 77.511719 70.195312 77.527344 70.121094 77.640625 69.964844 C 77.664062 69.894531 77.691406 69.871094 77.730469 69.777344 C 77.953125 69.203125 78.226562 68.980469 78.773438 68.714844 C 79.328125 68.441406 79.847656 68.175781 80.292969 67.734375 C 80.664062 67.363281 81.023438 66.96875 81.335938 66.570312 C 81.753906 66.117188 81.949219 65.632812 82.171875 65.058594 C 82.390625 64.628906 82.480469 64.167969 82.554688 63.695312 C 82.8125 61.910156 82.613281 60.519531 81.746094 58.957031 C 81.398438 58.511719 80.929688 58.203125 80.507812 57.84375 C 80.097656 57.492188 79.597656 57.25 79.335938 57.066406 C 78.816406 56.722656 78.222656 56.492188 77.769531 56.046875 C 77.5625 55.839844 77.484375 55.746094 77.355469 55.445312 C 77.097656 54.847656 76.992188 54.390625 76.796875 53.835938 C 76.355469 52.730469 75.578125 51.730469 74.667969 50.976562 C 73.132812 49.703125 71.585938 48.652344 69.796875 47.773438 C 67.34375 46.570312 64.359375 46.191406 61.652344 46.210938 C 57.863281 46.238281 54.449219 46.746094 51.550781 49.433594 C 50.8125 50.019531 50.144531 50.824219 49.734375 51.667969 C 48.34375 51.390625 46.902344 51.511719 45.660156 52.21875 C 45.015625 52.578125 44.613281 53.101562 44.089844 53.582031 C 42.910156 54.84375 42.804688 56.722656 42.847656 58.351562 C 42.933594 60.210938 43.878906 61.699219 45.160156 62.992188 L 45.316406 63.148438 C 45.597656 63.429688 45.871094 63.632812 46.214844 63.835938 L 46.214844 64.019531 L 46.398438 64.019531 C 46.335938 65.324219 46.234375 66.625 46.121094 67.929688 C 46.058594 68.65625 46 69.378906 45.9375 70.101562 C 45.851562 71.0625 45.667969 72 45.503906 72.945312 C 45.378906 73.667969 45.214844 74.371094 45.015625 75.074219 L 44.945312 75.316406 C 44.8125 75.78125 44.644531 76.214844 44.445312 76.652344 C 44.351562 76.851562 44.273438 77.054688 44.199219 77.257812 C 43.726562 78.441406 43.0625 79.726562 42.136719 80.609375 C 41.429688 79.324219 40.816406 78.050781 40.375 76.644531 C 40.105469 75.8125 39.867188 74.96875 39.644531 74.117188 C 39.03125 71.65625 39.121094 69.144531 39.132812 66.628906 C 39.136719 66.050781 39.136719 65.46875 39.136719 64.890625 C 39.136719 63.921875 39.140625 62.953125 39.140625 61.980469 C 39.148438 60.613281 39.148438 59.242188 39.152344 57.871094 C 39.15625 55.3125 39.164062 52.753906 39.167969 50.191406 C 40.59375 49.476562 42.074219 48.949219 43.578125 48.414062 C 45.914062 47.578125 48.257812 46.789062 50.609375 46 C 51.59375 45.671875 52.574219 45.382812 53.578125 45.132812 C 55.425781 44.675781 57.273438 44.214844 59.121094 43.753906 C 61.890625 43.0625 61.890625 43.0625 63.203125 43.410156 Z M 63.203125 43.414062 " fill-opacity="1" fill-rule="nonzero"/><path fill="#014a71" d="M 62.480469 53.375 C 63.949219 53.320312 65.246094 53.839844 66.328125 54.808594 C 67.261719 55.6875 67.773438 56.792969 67.824219 58.078125 C 67.835938 59.476562 67.394531 60.769531 66.425781 61.804688 C 65.210938 62.945312 63.847656 63.230469 62.242188 63.191406 C 60.511719 63.117188 58.492188 62.578125 57.207031 61.363281 C 56.46875 60.453125 56.199219 59.425781 56.261719 58.277344 C 56.339844 57.582031 56.785156 57.054688 57.300781 56.621094 C 57.636719 56.289062 57.867188 55.890625 58.1875 55.523438 L 58.339844 55.351562 C 58.953125 54.660156 59.582031 54.183594 60.453125 53.851562 L 60.707031 53.753906 C 61.304688 53.523438 61.847656 53.417969 62.480469 53.375 Z M 62.480469 53.375 " fill-opacity="1" fill-rule="nonzero"/><path fill="#1dbcd4" d="M 64.1875 55.976562 C 64.789062 56.261719 65.273438 56.515625 65.578125 57.117188 C 65.808594 57.484375 65.582031 59.019531 65.070312 59.929688 C 65.035156 59.992188 65.003906 60.054688 64.972656 60.117188 C 64.824219 60.375 64.730469 60.472656 64.441406 60.5625 L 64.234375 60.574219 C 64.164062 60.285156 64.140625 60.050781 64.148438 59.75 C 64.152344 59.226562 64.09375 58.863281 63.773438 58.453125 C 63.492188 57.992188 62.550781 57.988281 62.183594 57.992188 C 61.941406 57.996094 61.699219 57.996094 61.453125 57.992188 C 61.363281 57.902344 61.363281 57.902344 61.332031 57.574219 C 61.339844 57.066406 61.515625 56.648438 61.875 56.28125 C 62.527344 55.726562 63.390625 55.71875 64.1875 55.976562 Z M 64.1875 55.976562 " fill-opacity="1" fill-rule="nonzero"/><g transform="matrix(1, 0, 0, 1, 116, 43)"><g clip-path="url(#b1b283637f)"><g fill="#ffffff" fill-opacity="1"><g transform="translate(0.78087, 47.091303)"><g><path d="M 3.6875 0 L 3.6875 -43.390625 L 11.078125 -43.390625 L 26.953125 -5.59375 L 27.015625 -5.59375 L 42.84375 -43.390625 L 50.21875 -43.390625 L 50.21875 0 L 45.109375 0 L 45.109375 -36 L 44.984375 -36 L 29.671875 0 L 24.25 0 L 8.921875 -35.9375 L 8.796875 -35.9375 L 8.796875 0 Z M 3.6875 0 "/></g></g></g><g fill="#ffffff" fill-opacity="1"><g transform="translate(54.697708, 47.091303)"><g><path d="M 19.015625 1.234375 C 15.734375 1.234375 12.789062 0.492188 10.1875 -0.984375 C 7.582031 -2.460938 5.539062 -4.492188 4.0625 -7.078125 C 2.582031 -9.660156 1.84375 -12.59375 1.84375 -15.875 C 1.84375 -19.082031 2.519531 -21.914062 3.875 -24.375 C 5.226562 -26.832031 7.101562 -28.769531 9.5 -30.1875 C 11.90625 -31.601562 14.644531 -32.3125 17.71875 -32.3125 C 20.757812 -32.3125 23.40625 -31.601562 25.65625 -30.1875 C 27.914062 -28.769531 29.679688 -26.820312 30.953125 -24.34375 C 32.222656 -21.863281 32.878906 -19.019531 32.921875 -15.8125 C 32.921875 -15.53125 32.921875 -15.234375 32.921875 -14.921875 C 32.921875 -14.617188 32.898438 -14.300781 32.859375 -13.96875 L 6.703125 -13.96875 C 6.953125 -11.832031 7.628906 -9.929688 8.734375 -8.265625 C 9.847656 -6.609375 11.296875 -5.316406 13.078125 -4.390625 C 14.859375 -3.472656 16.859375 -3.015625 19.078125 -3.015625 C 21.492188 -3.015625 23.664062 -3.578125 25.59375 -4.703125 C 27.53125 -5.835938 28.925781 -7.242188 29.78125 -8.921875 L 33.84375 -7.265625 C 33.1875 -5.617188 32.128906 -4.148438 30.671875 -2.859375 C 29.222656 -1.566406 27.503906 -0.5625 25.515625 0.15625 C 23.523438 0.875 21.359375 1.234375 19.015625 1.234375 Z M 6.765625 -18.09375 L 27.9375 -18.09375 C 27.65625 -21.25 26.578125 -23.6875 24.703125 -25.40625 C 22.835938 -27.132812 20.488281 -28 17.65625 -28 C 14.789062 -28 12.375 -27.085938 10.40625 -25.265625 C 8.4375 -23.441406 7.222656 -21.050781 6.765625 -18.09375 Z M 6.765625 -18.09375 "/></g></g></g><g fill="#ffffff" fill-opacity="1"><g transform="translate(90.026782, 47.091303)"><g><path d="M 19.015625 1.234375 C 15.734375 1.234375 12.789062 0.492188 10.1875 -0.984375 C 7.582031 -2.460938 5.539062 -4.492188 4.0625 -7.078125 C 2.582031 -9.660156 1.84375 -12.59375 1.84375 -15.875 C 1.84375 -19.082031 2.519531 -21.914062 3.875 -24.375 C 5.226562 -26.832031 7.101562 -28.769531 9.5 -30.1875 C 11.90625 -31.601562 14.644531 -32.3125 17.71875 -32.3125 C 20.757812 -32.3125 23.40625 -31.601562 25.65625 -30.1875 C 27.914062 -28.769531 29.679688 -26.820312 30.953125 -24.34375 C 32.222656 -21.863281 32.878906 -19.019531 32.921875 -15.8125 C 32.921875 -15.53125 32.921875 -15.234375 32.921875 -14.921875 C 32.921875 -14.617188 32.898438 -14.300781 32.859375 -13.96875 L 6.703125 -13.96875 C 6.953125 -11.832031 7.628906 -9.929688 8.734375 -8.265625 C 9.847656 -6.609375 11.296875 -5.316406 13.078125 -4.390625 C 14.859375 -3.472656 16.859375 -3.015625 19.078125 -3.015625 C 21.492188 -3.015625 23.664062 -3.578125 25.59375 -4.703125 C 27.53125 -5.835938 28.925781 -7.242188 29.78125 -8.921875 L 33.84375 -7.265625 C 33.1875 -5.617188 32.128906 -4.148438 30.671875 -2.859375 C 29.222656 -1.566406 27.503906 -0.5625 25.515625 0.15625 C 23.523438 0.875 21.359375 1.234375 19.015625 1.234375 Z M 6.765625 -18.09375 L 27.9375 -18.09375 C 27.65625 -21.25 26.578125 -23.6875 24.703125 -25.40625 C 22.835938 -27.132812 20.488281 -28 17.65625 -28 C 14.789062 -28 12.375 -27.085938 10.40625 -25.265625 C 8.4375 -23.441406 7.222656 -21.050781 6.765625 -18.09375 Z M 6.765625 -18.09375 "/></g></g></g><g fill="#ffffff" fill-opacity="1"><g transform="translate(125.355856, 47.091303)"><g><path d="M 16.5625 -32.375 C 19.226562 -32.375 21.410156 -31.53125 23.109375 -29.84375 C 24.816406 -28.164062 25.8125 -25.769531 26.09375 -22.65625 L 22.03125 -21.296875 C 21.789062 -23.472656 21.125 -25.132812 20.03125 -26.28125 C 18.945312 -27.425781 17.5625 -28 15.875 -28 C 13.375 -28 11.394531 -27.035156 9.9375 -25.109375 C 8.476562 -23.179688 7.75 -20.515625 7.75 -17.109375 L 7.75 0 L 3.078125 0 L 3.078125 -31.078125 L 7.078125 -31.078125 L 7.515625 -26.21875 L 7.5625 -26.21875 C 8.425781 -28.101562 9.648438 -29.597656 11.234375 -30.703125 C 12.816406 -31.816406 14.59375 -32.375 16.5625 -32.375 Z M 16.5625 -32.375 "/></g></g></g><g fill="#ffffff" fill-opacity="1"><g transform="translate(152.683569, 47.091303)"><g><path d="M 0.609375 0 L 17.484375 -43.390625 L 23.640625 -43.390625 L 40.375 0 L 34.953125 0 L 31.015625 -10.40625 L 10.09375 -10.40625 L 6.09375 0 Z M 11.578125 -14.953125 L 29.484375 -14.953125 L 20.625 -38.34375 L 20.5 -38.34375 Z M 11.578125 -14.953125 "/></g></g></g><g fill="#ffffff" fill-opacity="1"><g transform="translate(193.675143, 47.091303)"><g><path d="M 3.6875 0 L 3.6875 -43.390625 L 21.484375 -43.390625 C 24.597656 -43.390625 27.332031 -42.820312 29.6875 -41.6875 C 32.050781 -40.5625 33.898438 -39.015625 35.234375 -37.046875 C 36.566406 -35.078125 37.234375 -32.800781 37.234375 -30.21875 C 37.234375 -27.675781 36.566406 -25.410156 35.234375 -23.421875 C 33.898438 -21.429688 32.039062 -19.878906 29.65625 -18.765625 C 27.28125 -17.660156 24.554688 -17.109375 21.484375 -17.109375 L 8.671875 -17.109375 L 8.671875 0 Z M 8.671875 -21.71875 L 21.484375 -21.71875 C 23.578125 -21.71875 25.421875 -22.078125 27.015625 -22.796875 C 28.617188 -23.515625 29.867188 -24.519531 30.765625 -25.8125 C 31.671875 -27.101562 32.125 -28.570312 32.125 -30.21875 C 32.125 -32.757812 31.140625 -34.832031 29.171875 -36.4375 C 27.203125 -38.039062 24.640625 -38.84375 21.484375 -38.84375 L 8.671875 -38.84375 Z M 8.671875 -21.71875 "/></g></g></g><g fill="#ffffff" fill-opacity="1"><g transform="translate(232.143209, 47.091303)"><g><path d="M 3.6875 0 L 3.6875 -43.390625 L 8.796875 -43.390625 L 8.796875 0 Z M 3.6875 0 "/></g></g></g></g></g></svg>