<svg xmlns="http://www.w3.org/2000/svg" xmlns:xlink="http://www.w3.org/1999/xlink" width="250" zoomAndPan="magnify" viewBox="0 0 187.5 74.999997" height="100" preserveAspectRatio="xMidYMid meet" version="1.0"><defs><g/><clipPath id="3386a20acc"><path d="M 18.605469 11.824219 L 62.738281 11.824219 L 62.738281 63.4375 L 18.605469 63.4375 Z M 18.605469 11.824219 " clip-rule="nonzero"/></clipPath><clipPath id="80a0bb7bdf"><rect x="0" width="89" y="0" height="23"/></clipPath></defs><g clip-path="url(#3386a20acc)"><path fill="#014a71" d="M 41.257812 11.941406 C 46.949219 13.460938 51.929688 14.96875 57.191406 16.730469 C 62.085938 18.367188 61.964844 18.417969 62.726562 18.851562 C 62.738281 19.164062 62.726562 19.675781 62.726562 19.988281 C 62.730469 20.242188 62.730469 20.496094 62.730469 20.75 C 62.730469 20.933594 62.730469 21.113281 62.730469 21.296875 C 62.730469 21.792969 62.730469 22.289062 62.730469 22.785156 C 62.730469 23.09375 62.730469 23.402344 62.730469 23.714844 C 62.730469 24.742188 62.730469 25.773438 62.730469 26.800781 L 62.730469 27.136719 C 62.730469 28.03125 62.734375 28.925781 62.734375 29.824219 C 62.734375 30.746094 62.734375 31.667969 62.734375 32.589844 C 62.734375 33.105469 62.734375 33.621094 62.738281 34.140625 C 62.738281 34.628906 62.738281 35.117188 62.738281 35.601562 C 62.738281 35.78125 62.738281 35.957031 62.738281 36.136719 C 62.75 41.683594 61.390625 47.398438 57.738281 51.71875 L 57.585938 51.914062 C 57.019531 52.628906 56.390625 53.28125 55.761719 53.941406 L 55.550781 54.160156 C 55.191406 54.535156 54.800781 54.867188 54.394531 55.195312 C 54.199219 55.355469 54.007812 55.519531 53.820312 55.6875 C 50.820312 58.382812 47.273438 60.371094 43.644531 62.070312 C 42.757812 62.484375 41.863281 62.882812 40.992188 63.328125 C 40.328125 63.453125 40.703125 63.476562 40.113281 63.210938 C 39.980469 63.152344 38.863281 62.667969 38.730469 62.609375 C 37.910156 62.242188 37.113281 61.828125 36.308594 61.433594 C 34.949219 60.761719 33.648438 60.015625 32.351562 59.226562 C 32.277344 59.183594 32.203125 59.136719 32.128906 59.09375 C 31.640625 58.792969 31.171875 58.476562 30.707031 58.144531 C 30.597656 58.066406 30.484375 57.988281 30.375 57.910156 C 29.691406 57.433594 29.027344 56.941406 28.382812 56.417969 C 28.261719 56.324219 28.144531 56.230469 28.027344 56.136719 C 27.554688 55.753906 27.105469 55.351562 26.660156 54.933594 C 26.480469 54.773438 26.300781 54.613281 26.117188 54.453125 C 25.492188 53.910156 24.914062 53.308594 24.382812 52.671875 L 24.277344 52.542969 C 20.425781 47.976562 18.59375 42.195312 18.605469 36.273438 L 18.605469 35.707031 C 18.605469 35.195312 18.605469 34.683594 18.605469 34.171875 C 18.605469 33.691406 18.605469 33.210938 18.605469 32.730469 C 18.605469 31.78125 18.609375 30.828125 18.609375 29.878906 C 18.609375 28.613281 18.609375 27.34375 18.609375 26.078125 C 18.613281 23.710938 18.613281 21.5 18.613281 19.128906 C 22.9375 17.292969 27.3125 15.417969 31.824219 14.085938 C 34.589844 13.269531 37.347656 12.589844 40.191406 11.902344 C 40.589844 11.808594 40.871094 11.835938 41.257812 11.941406 Z M 41.257812 11.941406 " fill-opacity="1" fill-rule="nonzero"/></g><path fill="#1cbbd3" d="M 45.324219 20.308594 C 46.207031 20.5625 47.054688 20.886719 47.804688 21.429688 C 48.011719 21.578125 48.222656 21.722656 48.429688 21.867188 C 49.25 22.441406 49.878906 23.253906 50.203125 24.203125 C 50.839844 26.050781 52.316406 27.226562 53.976562 28.105469 C 54.132812 28.1875 54.285156 28.269531 54.441406 28.351562 C 54.636719 28.457031 54.808594 28.554688 54.964844 28.714844 L 54.964844 28.953125 L 54.828125 28.949219 C 54.539062 28.945312 54.253906 28.945312 53.964844 28.9375 C 52.445312 28.925781 51.0625 29.59375 51.535156 31.351562 C 51.9375 32.253906 52.769531 32.378906 53.386719 32.996094 C 53.445312 33.316406 53.429688 33.472656 53.269531 33.757812 C 52.632812 34.667969 51.804688 35.1875 50.8125 35.621094 C 49.132812 36.304688 46.90625 36.542969 45.214844 35.832031 C 44.953125 35.710938 43.640625 34.988281 44.335938 34.640625 L 44.53125 34.503906 C 44.929688 34.105469 43.296875 34.183594 42.957031 34.476562 C 42.640625 34.839844 41.609375 36.703125 42.625 36.757812 C 43.210938 36.734375 43.117188 36.105469 43.738281 36.585938 C 45.046875 37.558594 47.015625 37.671875 48.574219 37.449219 C 49.503906 37.296875 50.464844 37.136719 51.355469 36.824219 C 51.609375 36.738281 51.777344 36.695312 52.042969 36.722656 C 52.101562 36.898438 52.121094 36.824219 52.042969 37.121094 C 51.273438 38.226562 50.066406 38.914062 48.90625 39.53125 C 48.472656 39.746094 48.027344 39.890625 47.566406 40.023438 C 47.320312 40.09375 47.074219 40.15625 46.824219 40.210938 C 45.640625 40.480469 44.441406 40.46875 43.234375 40.46875 C 41.917969 40.464844 40.757812 40.429688 39.5 40.066406 C 39.226562 39.988281 38.953125 39.90625 38.683594 39.816406 C 39.324219 41.222656 40.515625 42.234375 41.925781 42.828125 C 42.78125 43.132812 43.542969 43.242188 44.449219 43.246094 C 44.609375 43.246094 44.769531 43.246094 44.933594 43.25 C 45.570312 43.253906 46.136719 43.191406 46.753906 43.03125 C 46.976562 42.988281 47.09375 42.992188 47.300781 43.066406 L 47.335938 43.359375 C 47.457031 44.289062 47.660156 45.160156 47.953125 46.050781 C 48.015625 46.25 48.070312 46.449219 48.128906 46.644531 C 48.230469 46.988281 48.363281 47.292969 48.527344 47.613281 C 48.585938 47.722656 48.640625 47.832031 48.695312 47.941406 L 48.785156 48.117188 C 49.628906 49.777344 50.421875 51.5 50.621094 53.375 L 50.640625 53.542969 C 50.679688 53.933594 50.722656 54.339844 50.621094 54.722656 C 50.371094 55.003906 50.085938 55.125 49.75 55.277344 C 49.640625 55.351562 49.535156 55.429688 49.429688 55.511719 C 49.195312 55.675781 49.195312 55.675781 49.039062 55.675781 L 49.039062 55.832031 L 48.765625 55.976562 C 48.402344 56.179688 48.058594 56.402344 47.710938 56.632812 C 46.582031 57.367188 45.425781 58.050781 44.242188 58.691406 L 44.097656 58.769531 C 43.566406 59.058594 43.058594 59.308594 42.476562 59.480469 L 42.476562 59.25 C 42.46875 57.863281 42.460938 56.53125 42.050781 55.195312 C 41.988281 54.992188 41.945312 54.785156 41.902344 54.578125 C 41.734375 53.984375 41.425781 53.441406 41.132812 52.898438 L 41.054688 52.75 C 40.5625 51.839844 40.050781 51.011719 39.238281 50.363281 C 39.144531 50.28125 39.050781 50.195312 38.957031 50.113281 C 38.359375 49.605469 37.726562 49.273438 37.023438 48.933594 C 36.867188 48.855469 36.707031 48.777344 36.550781 48.695312 L 36.699219 48.910156 C 37.785156 50.488281 38.550781 52.261719 39.050781 54.109375 L 39.097656 54.277344 C 39.433594 55.570312 39.507812 56.8125 39.488281 58.144531 C 39.488281 58.304688 39.488281 58.464844 39.488281 58.625 C 39.484375 59.015625 39.480469 59.40625 39.476562 59.796875 C 39.195312 59.707031 38.929688 59.613281 38.667969 59.476562 C 38.335938 59.304688 38 59.140625 37.660156 58.984375 C 36.894531 58.625 36.183594 58.195312 35.445312 57.792969 C 34.417969 57.234375 33.496094 56.628906 32.542969 56.007812 C 32.132812 55.746094 31.722656 55.488281 31.332031 55.199219 C 30.898438 54.878906 29.546875 53.773438 29.199219 53.453125 C 29.097656 53.363281 28.996094 53.273438 28.894531 53.1875 C 28.050781 52.449219 27.238281 51.691406 26.511719 50.835938 L 26.390625 50.699219 C 26.175781 50.445312 26.078125 50.363281 25.878906 50.125 C 25.851562 49.789062 25.914062 49.640625 26.117188 49.375 C 26.367188 49.039062 26.578125 48.695312 26.785156 48.328125 C 27.097656 47.773438 27.484375 47.28125 27.730469 46.683594 C 28 46.238281 28.222656 45.773438 28.410156 45.285156 C 28.578125 44.851562 28.902344 43.894531 28.996094 43.582031 C 29.207031 42.878906 29.367188 42.183594 29.472656 41.457031 C 29.507812 41.226562 29.546875 41.007812 29.601562 40.78125 C 29.800781 39.910156 29.855469 39.0625 29.859375 38.171875 C 29.859375 37.96875 29.859375 37.761719 29.863281 37.558594 C 29.867188 37.125 29.871094 36.691406 29.871094 36.257812 C 29.875 35.753906 29.878906 35.25 29.882812 34.75 C 29.882812 34.550781 29.882812 34.351562 29.886719 34.152344 C 29.890625 33.570312 29.90625 32.992188 29.96875 32.414062 L 29.996094 32.132812 C 30.085938 31.828125 30.230469 31.699219 30.464844 31.492188 C 30.773438 31.019531 30.839844 30.492188 30.898438 29.9375 C 30.9375 29.667969 30.9375 29.667969 31.019531 29.398438 C 31.304688 28.328125 31.078125 27.261719 30.5625 26.304688 C 30.242188 25.804688 29.792969 25.453125 29.226562 25.261719 C 28.550781 25.125 27.960938 25.164062 27.382812 25.542969 L 27.304688 25.703125 L 27.144531 25.703125 C 27.210938 25.148438 27.539062 24.804688 27.945312 24.457031 C 28.464844 24.097656 29.070312 24.144531 29.671875 24.195312 C 29.917969 24.265625 30.101562 24.363281 30.304688 24.511719 L 30.542969 24.671875 C 31.265625 25.316406 31.820312 26.398438 31.886719 27.367188 L 32.046875 27.367188 L 32.070312 27.199219 C 32.125 26.96875 32.125 26.96875 32.238281 26.746094 C 32.578125 26.054688 32.644531 25.222656 32.4375 24.476562 C 32.3125 24.011719 32.414062 23.746094 32.644531 23.335938 C 32.898438 22.925781 33.195312 22.542969 33.546875 22.214844 C 33.785156 21.992188 34.167969 21.667969 34.382812 21.519531 L 34.5625 21.390625 C 35.140625 20.996094 35.742188 20.71875 36.394531 20.46875 L 36.539062 20.410156 C 39.191406 19.378906 42.601562 19.496094 45.324219 20.308594 Z M 45.324219 20.308594 " fill-opacity="1" fill-rule="nonzero"/><path fill="#0088ab" d="M 41.910156 14.917969 C 43.628906 15.363281 45.292969 15.757812 47.050781 16.292969 C 48.875 16.84375 50.585938 17.308594 52.488281 17.949219 C 53.773438 18.382812 55.058594 18.8125 56.347656 19.234375 C 57.566406 19.636719 58.847656 20.164062 59.984375 20.75 C 59.996094 21.050781 59.996094 21.351562 59.996094 21.652344 C 59.996094 22.550781 59.996094 23.449219 59.996094 24.347656 C 59.996094 24.847656 59.996094 25.347656 59.996094 25.847656 C 59.996094 26.742188 59.996094 27.636719 59.996094 28.53125 C 59.996094 29.339844 59.996094 30.152344 59.996094 30.960938 C 59.996094 31.902344 59.996094 32.839844 59.996094 33.78125 C 59.996094 34.277344 59.996094 34.777344 59.996094 35.273438 C 59.996094 35.746094 59.996094 36.214844 59.996094 36.683594 C 59.996094 36.851562 59.996094 37.023438 59.996094 37.195312 C 59.996094 38.484375 59.996094 39.765625 59.757812 41.03125 L 59.714844 41.269531 C 59.519531 42.328125 59.230469 43.316406 58.824219 44.316406 C 58.726562 44.554688 58.636719 44.789062 58.550781 45.03125 C 58.300781 45.746094 58.050781 46.390625 57.660156 47.035156 C 57.195312 47.808594 56.726562 48.496094 56.199219 49.214844 L 56.097656 49.359375 C 55.808594 49.761719 55.488281 50.164062 55.164062 50.5625 C 54.894531 50.839844 54.0625 51.6875 53.785156 51.964844 C 53.660156 52.070312 53.660156 52.070312 53.503906 52.070312 C 53.425781 51.785156 53.347656 51.503906 53.273438 51.222656 L 53.207031 50.980469 C 53.164062 50.828125 53.125 50.679688 53.082031 50.53125 C 52.835938 49.5625 52.28125 48.300781 51.691406 47.5 C 51.480469 47.152344 51.367188 46.800781 51.246094 46.414062 L 51.175781 46.199219 C 51.132812 46.058594 51.085938 45.914062 51.039062 45.773438 C 50.976562 45.578125 50.914062 45.382812 50.847656 45.191406 C 50.753906 44.90625 50.675781 44.625 50.609375 44.332031 L 50.550781 44.085938 C 50.421875 43.425781 50.414062 42.789062 50.417969 42.117188 L 50.417969 41.828125 C 50.417969 41.59375 50.417969 41.359375 50.421875 41.125 L 51.074219 40.78125 C 51.789062 40.398438 52.460938 39.808594 53.03125 39.222656 C 53.121094 39.128906 53.210938 39.035156 53.304688 38.945312 C 53.554688 38.699219 53.789062 38.429688 53.984375 38.113281 C 54.113281 37.953125 54.125 37.890625 54.222656 37.757812 C 54.242188 37.695312 54.265625 37.675781 54.296875 37.59375 C 54.488281 37.101562 54.722656 36.910156 55.1875 36.679688 C 55.660156 36.445312 56.105469 36.21875 56.484375 35.839844 C 56.800781 35.519531 57.109375 35.179688 57.371094 34.839844 C 57.730469 34.449219 57.898438 34.03125 58.085938 33.535156 C 58.273438 33.167969 58.347656 32.769531 58.414062 32.363281 C 58.632812 30.828125 58.464844 29.632812 57.722656 28.285156 C 57.429688 27.90625 57.027344 27.640625 56.664062 27.328125 C 56.316406 27.027344 55.890625 26.820312 55.667969 26.664062 C 55.222656 26.363281 54.71875 26.167969 54.332031 25.785156 C 54.15625 25.605469 54.089844 25.527344 53.976562 25.269531 C 53.757812 24.753906 53.667969 24.359375 53.503906 23.882812 C 53.128906 22.933594 52.464844 22.074219 51.6875 21.421875 C 50.378906 20.328125 49.058594 19.425781 47.535156 18.667969 C 45.441406 17.632812 42.894531 17.304688 40.589844 17.324219 C 37.355469 17.347656 34.441406 17.785156 31.972656 20.09375 C 31.34375 20.597656 30.773438 21.292969 30.425781 22.019531 C 29.238281 21.78125 28.007812 21.882812 26.949219 22.492188 C 26.398438 22.800781 26.058594 23.25 25.609375 23.664062 C 24.605469 24.75 24.511719 26.367188 24.550781 27.765625 C 24.625 29.367188 25.429688 30.648438 26.523438 31.761719 L 26.65625 31.894531 C 26.894531 32.136719 27.128906 32.308594 27.421875 32.484375 L 27.421875 32.640625 L 27.578125 32.640625 C 27.527344 33.765625 27.4375 34.886719 27.34375 36.007812 C 27.289062 36.628906 27.238281 37.253906 27.183594 37.875 C 27.113281 38.699219 26.957031 39.507812 26.816406 40.320312 C 26.710938 40.941406 26.570312 41.546875 26.398438 42.152344 L 26.339844 42.359375 C 26.226562 42.757812 26.085938 43.132812 25.910156 43.511719 C 25.832031 43.683594 25.765625 43.855469 25.703125 44.03125 C 25.300781 45.050781 24.734375 46.15625 23.945312 46.914062 C 23.34375 45.808594 22.816406 44.710938 22.441406 43.503906 C 22.214844 42.785156 22.007812 42.0625 21.816406 41.332031 C 21.296875 39.214844 21.371094 37.050781 21.382812 34.886719 C 21.386719 34.390625 21.386719 33.890625 21.386719 33.394531 C 21.386719 32.558594 21.386719 31.726562 21.390625 30.890625 C 21.394531 29.710938 21.398438 28.535156 21.398438 27.355469 C 21.402344 25.152344 21.410156 22.949219 21.414062 20.75 C 22.628906 20.132812 23.890625 19.679688 25.171875 19.21875 C 27.164062 18.5 29.164062 17.820312 31.171875 17.140625 C 32.007812 16.859375 32.847656 16.609375 33.703125 16.398438 C 35.277344 16.003906 36.855469 15.609375 38.429688 15.210938 C 40.789062 14.617188 40.789062 14.617188 41.910156 14.914062 Z M 41.910156 14.917969 " fill-opacity="1" fill-rule="nonzero"/><path fill="#014a71" d="M 41.296875 23.488281 C 42.546875 23.441406 43.652344 23.886719 44.574219 24.71875 C 45.371094 25.476562 45.808594 26.425781 45.851562 27.53125 C 45.859375 28.734375 45.484375 29.847656 44.660156 30.738281 C 43.625 31.71875 42.460938 31.964844 41.089844 31.929688 C 39.613281 31.867188 37.894531 31.402344 36.796875 30.355469 C 36.167969 29.574219 35.933594 28.691406 35.992188 27.703125 C 36.058594 27.105469 36.4375 26.652344 36.878906 26.277344 C 37.164062 25.992188 37.359375 25.648438 37.632812 25.335938 L 37.761719 25.1875 C 38.289062 24.589844 38.820312 24.179688 39.566406 23.898438 L 39.78125 23.8125 C 40.289062 23.613281 40.753906 23.523438 41.296875 23.488281 Z M 41.296875 23.488281 " fill-opacity="1" fill-rule="nonzero"/><path fill="#1dbcd4" d="M 42.75 25.726562 C 43.261719 25.96875 43.675781 26.1875 43.9375 26.707031 C 44.132812 27.023438 43.9375 28.34375 43.5 29.125 C 43.472656 29.179688 43.445312 29.230469 43.417969 29.285156 C 43.292969 29.507812 43.210938 29.59375 42.96875 29.667969 L 42.789062 29.679688 C 42.726562 29.433594 42.710938 29.226562 42.714844 28.96875 C 42.722656 28.519531 42.671875 28.207031 42.394531 27.855469 C 42.15625 27.457031 41.355469 27.453125 41.042969 27.457031 C 40.832031 27.460938 40.625 27.460938 40.417969 27.457031 C 40.339844 27.378906 40.339844 27.378906 40.316406 27.097656 C 40.320312 26.660156 40.472656 26.300781 40.777344 25.988281 C 41.335938 25.507812 42.070312 25.503906 42.75 25.726562 Z M 42.75 25.726562 " fill-opacity="1" fill-rule="nonzero"/><g transform="matrix(1, 0, 0, 1, 80, 26)"><g clip-path="url(#80a0bb7bdf)"><g fill="#ffffff" fill-opacity="1"><g transform="translate(0.882941, 16.888651)"><g><path d="M 1.3125 0 L 1.3125 -15.5 L 3.953125 -15.5 L 9.625 -2 L 9.65625 -2 L 15.296875 -15.5 L 17.9375 -15.5 L 17.9375 0 L 16.109375 0 L 16.109375 -12.859375 L 16.078125 -12.859375 L 10.59375 0 L 8.65625 0 L 3.1875 -12.84375 L 3.140625 -12.84375 L 3.140625 0 Z M 1.3125 0 "/></g></g></g><g fill="#ffffff" fill-opacity="1"><g transform="translate(20.135035, 16.888651)"><g><path d="M 6.796875 0.4375 C 5.617188 0.4375 4.566406 0.175781 3.640625 -0.34375 C 2.710938 -0.875 1.984375 -1.597656 1.453125 -2.515625 C 0.921875 -3.441406 0.65625 -4.492188 0.65625 -5.671875 C 0.65625 -6.816406 0.894531 -7.828125 1.375 -8.703125 C 1.863281 -9.585938 2.535156 -10.28125 3.390625 -10.78125 C 4.253906 -11.289062 5.234375 -11.546875 6.328125 -11.546875 C 7.410156 -11.546875 8.351562 -11.289062 9.15625 -10.78125 C 9.96875 -10.28125 10.597656 -9.582031 11.046875 -8.6875 C 11.503906 -7.800781 11.742188 -6.789062 11.765625 -5.65625 C 11.765625 -5.550781 11.765625 -5.441406 11.765625 -5.328125 C 11.765625 -5.222656 11.753906 -5.109375 11.734375 -4.984375 L 2.390625 -4.984375 C 2.484375 -4.222656 2.726562 -3.546875 3.125 -2.953125 C 3.519531 -2.359375 4.035156 -1.894531 4.671875 -1.5625 C 5.304688 -1.238281 6.019531 -1.078125 6.8125 -1.078125 C 7.675781 -1.078125 8.453125 -1.273438 9.140625 -1.671875 C 9.828125 -2.078125 10.328125 -2.582031 10.640625 -3.1875 L 12.09375 -2.59375 C 11.851562 -2.007812 11.472656 -1.484375 10.953125 -1.015625 C 10.429688 -0.554688 9.816406 -0.203125 9.109375 0.046875 C 8.398438 0.304688 7.628906 0.4375 6.796875 0.4375 Z M 2.421875 -6.46875 L 9.984375 -6.46875 C 9.878906 -7.59375 9.492188 -8.460938 8.828125 -9.078125 C 8.160156 -9.691406 7.320312 -10 6.3125 -10 C 5.28125 -10 4.410156 -9.671875 3.703125 -9.015625 C 3.003906 -8.367188 2.578125 -7.519531 2.421875 -6.46875 Z M 2.421875 -6.46875 "/></g></g></g><g fill="#ffffff" fill-opacity="1"><g transform="translate(32.749993, 16.888651)"><g><path d="M 6.796875 0.4375 C 5.617188 0.4375 4.566406 0.175781 3.640625 -0.34375 C 2.710938 -0.875 1.984375 -1.597656 1.453125 -2.515625 C 0.921875 -3.441406 0.65625 -4.492188 0.65625 -5.671875 C 0.65625 -6.816406 0.894531 -7.828125 1.375 -8.703125 C 1.863281 -9.585938 2.535156 -10.28125 3.390625 -10.78125 C 4.253906 -11.289062 5.234375 -11.546875 6.328125 -11.546875 C 7.410156 -11.546875 8.351562 -11.289062 9.15625 -10.78125 C 9.96875 -10.28125 10.597656 -9.582031 11.046875 -8.6875 C 11.503906 -7.800781 11.742188 -6.789062 11.765625 -5.65625 C 11.765625 -5.550781 11.765625 -5.441406 11.765625 -5.328125 C 11.765625 -5.222656 11.753906 -5.109375 11.734375 -4.984375 L 2.390625 -4.984375 C 2.484375 -4.222656 2.726562 -3.546875 3.125 -2.953125 C 3.519531 -2.359375 4.035156 -1.894531 4.671875 -1.5625 C 5.304688 -1.238281 6.019531 -1.078125 6.8125 -1.078125 C 7.675781 -1.078125 8.453125 -1.273438 9.140625 -1.671875 C 9.828125 -2.078125 10.328125 -2.582031 10.640625 -3.1875 L 12.09375 -2.59375 C 11.851562 -2.007812 11.472656 -1.484375 10.953125 -1.015625 C 10.429688 -0.554688 9.816406 -0.203125 9.109375 0.046875 C 8.398438 0.304688 7.628906 0.4375 6.796875 0.4375 Z M 2.421875 -6.46875 L 9.984375 -6.46875 C 9.878906 -7.59375 9.492188 -8.460938 8.828125 -9.078125 C 8.160156 -9.691406 7.320312 -10 6.3125 -10 C 5.28125 -10 4.410156 -9.671875 3.703125 -9.015625 C 3.003906 -8.367188 2.578125 -7.519531 2.421875 -6.46875 Z M 2.421875 -6.46875 "/></g></g></g><g fill="#ffffff" fill-opacity="1"><g transform="translate(45.364952, 16.888651)"><g><path d="M 5.90625 -11.5625 C 6.863281 -11.5625 7.644531 -11.257812 8.25 -10.65625 C 8.863281 -10.0625 9.222656 -9.207031 9.328125 -8.09375 L 7.875 -7.609375 C 7.78125 -8.378906 7.539062 -8.96875 7.15625 -9.375 C 6.769531 -9.789062 6.273438 -10 5.671875 -10 C 4.773438 -10 4.066406 -9.65625 3.546875 -8.96875 C 3.023438 -8.28125 2.765625 -7.328125 2.765625 -6.109375 L 2.765625 0 L 1.09375 0 L 1.09375 -11.109375 L 2.53125 -11.109375 L 2.6875 -9.359375 L 2.703125 -9.359375 C 3.015625 -10.035156 3.453125 -10.570312 4.015625 -10.96875 C 4.578125 -11.363281 5.207031 -11.5625 5.90625 -11.5625 Z M 5.90625 -11.5625 "/></g></g></g><g fill="#ffffff" fill-opacity="1"><g transform="translate(55.122863, 16.888651)"><g><path d="M 0.21875 0 L 6.25 -15.5 L 8.4375 -15.5 L 14.421875 0 L 12.484375 0 L 11.078125 -3.71875 L 3.609375 -3.71875 L 2.171875 0 Z M 4.140625 -5.34375 L 10.53125 -5.34375 L 7.359375 -13.703125 L 7.328125 -13.703125 Z M 4.140625 -5.34375 "/></g></g></g><g fill="#ffffff" fill-opacity="1"><g transform="translate(69.759731, 16.888651)"><g><path d="M 1.3125 0 L 1.3125 -15.5 L 7.671875 -15.5 C 8.785156 -15.5 9.765625 -15.296875 10.609375 -14.890625 C 11.453125 -14.492188 12.109375 -13.941406 12.578125 -13.234375 C 13.054688 -12.523438 13.296875 -11.710938 13.296875 -10.796875 C 13.296875 -9.890625 13.054688 -9.078125 12.578125 -8.359375 C 12.109375 -7.648438 11.445312 -7.097656 10.59375 -6.703125 C 9.75 -6.304688 8.773438 -6.109375 7.671875 -6.109375 L 3.09375 -6.109375 L 3.09375 0 Z M 3.09375 -7.765625 L 7.671875 -7.765625 C 8.421875 -7.765625 9.082031 -7.890625 9.65625 -8.140625 C 10.226562 -8.398438 10.671875 -8.757812 10.984375 -9.21875 C 11.304688 -9.6875 11.46875 -10.210938 11.46875 -10.796875 C 11.46875 -11.703125 11.113281 -12.441406 10.40625 -13.015625 C 9.707031 -13.585938 8.796875 -13.875 7.671875 -13.875 L 3.09375 -13.875 Z M 3.09375 -7.765625 "/></g></g></g><g fill="#ffffff" fill-opacity="1"><g transform="translate(83.49553, 16.888651)"><g><path d="M 1.3125 0 L 1.3125 -15.5 L 3.140625 -15.5 L 3.140625 0 Z M 1.3125 0 "/></g></g></g></g></g></svg>