<svg xmlns="http://www.w3.org/2000/svg" xmlns:xlink="http://www.w3.org/1999/xlink" width="500" zoomAndPan="magnify" viewBox="0 0 375 149.999998" height="200" preserveAspectRatio="xMidYMid meet" version="1.0"><defs><g/><clipPath id="3b1a850448"><path d="M 24.402344 48.503906 L 70.152344 48.503906 L 70.152344 101.753906 L 24.402344 101.753906 Z M 24.402344 48.503906 " clip-rule="nonzero"/></clipPath><clipPath id="1b0533d4d9"><rect x="0" width="275" y="0" height="70"/></clipPath></defs><g clip-path="url(#3b1a850448)"><path fill="#014a71" d="M 47.886719 48.625 C 53.785156 50.195312 58.949219 51.75 64.40625 53.566406 C 69.476562 55.253906 69.351562 55.304688 70.144531 55.757812 C 70.15625 56.078125 70.144531 56.605469 70.144531 56.925781 C 70.144531 57.1875 70.144531 57.453125 70.144531 57.714844 C 70.144531 57.902344 70.144531 58.089844 70.144531 58.277344 C 70.144531 58.789062 70.144531 59.300781 70.144531 59.8125 C 70.144531 60.128906 70.144531 60.449219 70.144531 60.773438 C 70.148438 61.832031 70.148438 62.894531 70.148438 63.953125 L 70.148438 64.300781 C 70.148438 65.226562 70.148438 66.148438 70.148438 67.074219 C 70.152344 68.023438 70.152344 68.976562 70.152344 69.925781 C 70.152344 70.460938 70.152344 70.992188 70.152344 71.527344 C 70.152344 72.03125 70.152344 72.53125 70.152344 73.035156 C 70.152344 73.21875 70.152344 73.402344 70.152344 73.585938 C 70.167969 79.308594 68.757812 85.203125 64.96875 89.660156 L 64.8125 89.859375 C 64.226562 90.597656 63.574219 91.273438 62.921875 91.953125 L 62.703125 92.179688 C 62.328125 92.566406 61.925781 92.90625 61.503906 93.246094 C 61.300781 93.410156 61.105469 93.582031 60.910156 93.757812 C 57.796875 96.535156 54.121094 98.585938 50.359375 100.339844 C 49.441406 100.769531 48.511719 101.175781 47.609375 101.636719 C 46.925781 101.769531 47.3125 101.789062 46.699219 101.515625 C 46.5625 101.457031 45.40625 100.957031 45.269531 100.894531 C 44.417969 100.515625 43.589844 100.089844 42.753906 99.679688 C 41.347656 98.992188 39.996094 98.21875 38.652344 97.40625 C 38.578125 97.359375 38.5 97.316406 38.421875 97.269531 C 37.917969 96.957031 37.429688 96.628906 36.949219 96.289062 C 36.835938 96.207031 36.71875 96.128906 36.605469 96.046875 C 35.898438 95.554688 35.207031 95.046875 34.539062 94.507812 C 34.414062 94.410156 34.292969 94.316406 34.171875 94.21875 C 33.679688 93.824219 33.214844 93.40625 32.75 92.980469 C 32.566406 92.808594 32.378906 92.644531 32.191406 92.484375 C 31.542969 91.921875 30.941406 91.300781 30.394531 90.644531 L 30.28125 90.511719 C 26.289062 85.800781 24.394531 79.839844 24.402344 73.726562 L 24.402344 73.140625 C 24.402344 72.613281 24.402344 72.085938 24.40625 71.5625 C 24.40625 71.0625 24.40625 70.570312 24.40625 70.074219 C 24.40625 69.09375 24.40625 68.113281 24.40625 67.128906 C 24.40625 65.824219 24.410156 64.515625 24.410156 63.207031 C 24.410156 60.765625 24.410156 58.484375 24.410156 56.042969 C 28.894531 54.144531 33.429688 52.210938 38.105469 50.839844 C 40.972656 49.996094 43.832031 49.292969 46.78125 48.585938 C 47.195312 48.488281 47.484375 48.519531 47.886719 48.625 Z M 47.886719 48.625 " fill-opacity="1" fill-rule="nonzero"/></g><path fill="#1cbbd3" d="M 52.101562 57.257812 C 53.019531 57.519531 53.894531 57.855469 54.675781 58.414062 C 54.886719 58.570312 55.105469 58.71875 55.324219 58.863281 C 56.171875 59.457031 56.824219 60.296875 57.160156 61.277344 C 57.820312 63.179688 59.351562 64.394531 61.074219 65.300781 C 61.234375 65.386719 61.390625 65.46875 61.550781 65.554688 C 61.753906 65.664062 61.933594 65.765625 62.097656 65.929688 L 62.097656 66.175781 L 61.953125 66.171875 C 61.65625 66.167969 61.359375 66.164062 61.058594 66.160156 C 59.484375 66.148438 58.050781 66.835938 58.542969 68.652344 C 58.960938 69.582031 59.820312 69.707031 60.457031 70.347656 C 60.523438 70.675781 60.503906 70.839844 60.339844 71.132812 C 59.679688 72.074219 58.820312 72.609375 57.789062 73.054688 C 56.050781 73.757812 53.742188 74.007812 51.988281 73.273438 C 51.714844 73.144531 50.355469 72.402344 51.078125 72.042969 L 51.28125 71.898438 C 51.691406 71.492188 50 71.570312 49.648438 71.875 C 49.320312 72.25 48.25 74.167969 49.304688 74.226562 C 49.910156 74.203125 49.8125 73.554688 50.457031 74.046875 C 51.816406 75.050781 53.855469 75.171875 55.472656 74.9375 C 56.4375 74.785156 57.429688 74.617188 58.355469 74.292969 C 58.617188 74.203125 58.792969 74.164062 59.066406 74.191406 C 59.125 74.371094 59.148438 74.292969 59.066406 74.601562 C 58.269531 75.742188 57.019531 76.453125 55.8125 77.089844 C 55.367188 77.308594 54.90625 77.460938 54.425781 77.597656 C 54.171875 77.667969 53.914062 77.734375 53.65625 77.789062 C 52.429688 78.066406 51.183594 78.058594 49.9375 78.054688 C 48.570312 78.050781 47.367188 78.015625 46.0625 77.640625 C 45.777344 77.558594 45.5 77.472656 45.21875 77.382812 C 45.882812 78.832031 47.117188 79.875 48.578125 80.488281 C 49.464844 80.804688 50.253906 80.917969 51.195312 80.917969 C 51.359375 80.917969 51.527344 80.921875 51.695312 80.921875 C 52.355469 80.929688 52.945312 80.863281 53.585938 80.699219 C 53.8125 80.65625 53.933594 80.65625 54.148438 80.734375 L 54.1875 81.035156 C 54.3125 81.996094 54.523438 82.894531 54.824219 83.816406 C 54.890625 84.015625 54.949219 84.222656 55.007812 84.425781 C 55.113281 84.78125 55.25 85.097656 55.425781 85.421875 C 55.484375 85.535156 55.542969 85.648438 55.597656 85.761719 L 55.691406 85.945312 C 56.566406 87.660156 57.386719 89.433594 57.589844 91.367188 L 57.613281 91.542969 C 57.65625 91.945312 57.699219 92.363281 57.589844 92.757812 C 57.332031 93.046875 57.039062 93.175781 56.6875 93.332031 C 56.574219 93.410156 56.464844 93.488281 56.355469 93.574219 C 56.117188 93.742188 56.117188 93.742188 55.953125 93.742188 L 55.953125 93.90625 L 55.671875 94.054688 C 55.292969 94.261719 54.933594 94.492188 54.574219 94.726562 C 53.40625 95.488281 52.207031 96.191406 50.980469 96.855469 L 50.832031 96.933594 C 50.28125 97.234375 49.753906 97.492188 49.152344 97.667969 L 49.148438 97.429688 C 49.140625 96 49.132812 94.625 48.707031 93.246094 C 48.644531 93.035156 48.601562 92.824219 48.554688 92.609375 C 48.378906 92 48.058594 91.4375 47.757812 90.878906 L 47.675781 90.722656 C 47.164062 89.785156 46.632812 88.933594 45.792969 88.261719 C 45.695312 88.175781 45.597656 88.089844 45.5 88.003906 C 44.878906 87.480469 44.226562 87.140625 43.496094 86.789062 C 43.332031 86.707031 43.167969 86.625 43.007812 86.542969 L 43.160156 86.765625 C 44.285156 88.390625 45.082031 90.21875 45.597656 92.125 L 45.644531 92.300781 C 45.996094 93.632812 46.070312 94.914062 46.054688 96.289062 C 46.050781 96.453125 46.050781 96.621094 46.050781 96.785156 C 46.046875 97.1875 46.042969 97.59375 46.039062 97.996094 C 45.746094 97.898438 45.472656 97.804688 45.203125 97.660156 C 44.859375 97.484375 44.507812 97.320312 44.15625 97.15625 C 43.363281 96.785156 42.625 96.34375 41.859375 95.925781 C 40.792969 95.351562 39.839844 94.726562 38.851562 94.085938 C 38.429688 93.816406 38.003906 93.546875 37.597656 93.25 C 37.148438 92.917969 35.746094 91.78125 35.386719 91.449219 C 35.28125 91.359375 35.175781 91.265625 35.070312 91.175781 C 34.195312 90.414062 33.355469 89.632812 32.601562 88.75 L 32.472656 88.605469 C 32.25 88.347656 32.152344 88.261719 31.945312 88.015625 C 31.914062 87.667969 31.980469 87.515625 32.191406 87.242188 C 32.449219 86.894531 32.671875 86.539062 32.882812 86.164062 C 33.207031 85.589844 33.605469 85.082031 33.863281 84.46875 C 34.140625 84.007812 34.371094 83.527344 34.566406 83.023438 C 34.742188 82.574219 35.078125 81.589844 35.175781 81.265625 C 35.394531 80.539062 35.558594 79.824219 35.667969 79.074219 C 35.703125 78.839844 35.746094 78.609375 35.800781 78.378906 C 36.011719 77.480469 36.066406 76.605469 36.070312 75.6875 C 36.070312 75.476562 36.070312 75.265625 36.074219 75.054688 C 36.078125 74.605469 36.082031 74.15625 36.082031 73.710938 C 36.085938 73.191406 36.089844 72.671875 36.09375 72.152344 C 36.097656 71.949219 36.097656 71.742188 36.097656 71.539062 C 36.101562 70.9375 36.117188 70.34375 36.183594 69.746094 L 36.214844 69.457031 C 36.304688 69.140625 36.453125 69.007812 36.699219 68.792969 C 37.019531 68.304688 37.085938 67.761719 37.148438 67.191406 C 37.1875 66.910156 37.1875 66.910156 37.273438 66.632812 C 37.570312 65.53125 37.335938 64.429688 36.800781 63.445312 C 36.46875 62.925781 36.003906 62.5625 35.414062 62.367188 C 34.714844 62.226562 34.101562 62.265625 33.5 62.65625 L 33.421875 62.820312 L 33.257812 62.820312 C 33.324219 62.25 33.664062 61.898438 34.085938 61.535156 C 34.625 61.164062 35.253906 61.214844 35.878906 61.265625 C 36.132812 61.339844 36.320312 61.441406 36.535156 61.59375 L 36.78125 61.757812 C 37.527344 62.421875 38.105469 63.539062 38.171875 64.539062 L 38.335938 64.539062 L 38.359375 64.367188 C 38.417969 64.128906 38.417969 64.128906 38.535156 63.902344 C 38.886719 63.183594 38.957031 62.328125 38.742188 61.558594 C 38.613281 61.078125 38.71875 60.804688 38.957031 60.382812 C 39.222656 59.960938 39.527344 59.5625 39.894531 59.222656 C 40.136719 58.992188 40.539062 58.660156 40.757812 58.507812 L 40.945312 58.375 C 41.546875 57.964844 42.167969 57.679688 42.84375 57.421875 L 42.996094 57.363281 C 45.746094 56.300781 49.28125 56.417969 52.101562 57.257812 Z M 52.101562 57.257812 " fill-opacity="1" fill-rule="nonzero"/><path fill="#0088ab" d="M 48.5625 51.695312 C 50.34375 52.15625 52.070312 52.5625 53.890625 53.113281 C 55.78125 53.683594 57.558594 54.164062 59.53125 54.824219 C 60.863281 55.273438 62.195312 55.714844 63.53125 56.148438 C 64.789062 56.566406 66.117188 57.109375 67.300781 57.710938 C 67.3125 58.023438 67.308594 58.332031 67.3125 58.644531 C 67.3125 59.570312 67.3125 60.496094 67.3125 61.425781 C 67.3125 61.941406 67.3125 62.457031 67.3125 62.972656 C 67.3125 63.894531 67.3125 64.816406 67.3125 65.742188 C 67.308594 66.574219 67.308594 67.410156 67.3125 68.246094 C 67.3125 69.214844 67.3125 70.1875 67.3125 71.15625 C 67.3125 71.667969 67.3125 72.183594 67.3125 72.695312 C 67.3125 73.179688 67.3125 73.664062 67.3125 74.148438 C 67.3125 74.324219 67.3125 74.503906 67.3125 74.679688 C 67.3125 76.007812 67.3125 77.328125 67.066406 78.636719 L 67.019531 78.878906 C 66.816406 79.972656 66.519531 80.992188 66.097656 82.023438 C 65.996094 82.269531 65.902344 82.511719 65.8125 82.761719 C 65.554688 83.496094 65.296875 84.164062 64.890625 84.828125 C 64.40625 85.625 63.925781 86.335938 63.378906 87.078125 L 63.269531 87.226562 C 62.96875 87.640625 62.636719 88.058594 62.300781 88.46875 C 62.023438 88.753906 61.160156 89.628906 60.875 89.914062 C 60.746094 90.023438 60.746094 90.023438 60.582031 90.023438 C 60.5 89.730469 60.421875 89.4375 60.339844 89.148438 L 60.273438 88.898438 C 60.230469 88.742188 60.1875 88.589844 60.144531 88.433594 C 59.886719 87.4375 59.3125 86.136719 58.703125 85.308594 C 58.484375 84.949219 58.367188 84.585938 58.242188 84.1875 L 58.167969 83.964844 C 58.121094 83.820312 58.074219 83.671875 58.027344 83.527344 C 57.960938 83.324219 57.894531 83.125 57.828125 82.925781 C 57.730469 82.632812 57.648438 82.339844 57.582031 82.042969 L 57.523438 81.785156 C 57.386719 81.105469 57.375 80.449219 57.378906 79.753906 L 57.382812 79.457031 C 57.382812 79.214844 57.382812 78.976562 57.386719 78.734375 L 58.0625 78.375 C 58.804688 77.980469 59.5 77.375 60.089844 76.769531 C 60.183594 76.671875 60.277344 76.578125 60.375 76.484375 C 60.632812 76.226562 60.875 75.953125 61.082031 75.625 C 61.210938 75.460938 61.226562 75.394531 61.328125 75.257812 C 61.347656 75.195312 61.371094 75.175781 61.40625 75.089844 C 61.601562 74.582031 61.84375 74.382812 62.328125 74.148438 C 62.816406 73.90625 63.277344 73.667969 63.667969 73.277344 C 64 72.949219 64.316406 72.597656 64.589844 72.246094 C 64.960938 71.84375 65.136719 71.414062 65.332031 70.902344 C 65.527344 70.523438 65.605469 70.113281 65.671875 69.695312 C 65.898438 68.109375 65.722656 66.875 64.953125 65.488281 C 64.648438 65.09375 64.234375 64.820312 63.859375 64.5 C 63.5 64.191406 63.058594 63.972656 62.824219 63.8125 C 62.363281 63.503906 61.839844 63.300781 61.441406 62.90625 C 61.257812 62.722656 61.1875 62.640625 61.074219 62.375 C 60.84375 61.84375 60.75 61.4375 60.582031 60.945312 C 60.191406 59.964844 59.503906 59.078125 58.695312 58.40625 C 57.339844 57.277344 55.972656 56.34375 54.390625 55.5625 C 52.222656 54.5 49.582031 54.160156 47.191406 54.179688 C 43.84375 54.203125 40.820312 54.652344 38.257812 57.035156 C 37.609375 57.558594 37.019531 58.273438 36.65625 59.019531 C 35.425781 58.777344 34.152344 58.882812 33.050781 59.511719 C 32.484375 59.828125 32.128906 60.292969 31.664062 60.71875 C 30.621094 61.839844 30.527344 63.507812 30.566406 64.949219 C 30.644531 66.601562 31.476562 67.921875 32.609375 69.070312 L 32.75 69.210938 C 33 69.457031 33.238281 69.636719 33.542969 69.816406 L 33.542969 69.980469 L 33.707031 69.980469 C 33.652344 71.140625 33.558594 72.296875 33.460938 73.453125 C 33.40625 74.097656 33.351562 74.738281 33.296875 75.378906 C 33.222656 76.230469 33.058594 77.0625 32.914062 77.902344 C 32.804688 78.542969 32.660156 79.167969 32.484375 79.792969 L 32.421875 80.007812 C 32.304688 80.417969 32.15625 80.804688 31.976562 81.195312 C 31.898438 81.371094 31.828125 81.546875 31.761719 81.730469 C 31.34375 82.78125 30.757812 83.921875 29.9375 84.707031 C 29.316406 83.5625 28.769531 82.433594 28.378906 81.1875 C 28.144531 80.445312 27.933594 79.699219 27.734375 78.945312 C 27.191406 76.761719 27.273438 74.53125 27.28125 72.296875 C 27.285156 71.785156 27.285156 71.269531 27.285156 70.753906 C 27.285156 69.894531 27.289062 69.035156 27.292969 68.171875 C 27.296875 66.957031 27.296875 65.742188 27.300781 64.527344 C 27.304688 62.253906 27.308594 59.984375 27.316406 57.710938 C 28.574219 57.074219 29.882812 56.609375 31.210938 56.132812 C 33.277344 55.390625 35.351562 54.691406 37.429688 53.992188 C 38.296875 53.699219 39.167969 53.441406 40.054688 53.222656 C 41.6875 52.816406 43.320312 52.40625 44.953125 52 C 47.402344 51.382812 47.402344 51.382812 48.5625 51.695312 Z M 48.5625 51.695312 " fill-opacity="1" fill-rule="nonzero"/><path fill="#014a71" d="M 47.925781 60.535156 C 49.222656 60.488281 50.367188 60.949219 51.324219 61.808594 C 52.152344 62.589844 52.601562 63.570312 52.648438 64.707031 C 52.660156 65.953125 52.265625 67.097656 51.410156 68.015625 C 50.339844 69.027344 49.132812 69.28125 47.710938 69.246094 C 46.183594 69.179688 44.398438 68.703125 43.261719 67.625 C 42.609375 66.816406 42.367188 65.90625 42.425781 64.886719 C 42.496094 64.269531 42.890625 63.800781 43.34375 63.414062 C 43.640625 63.121094 43.847656 62.769531 44.128906 62.445312 L 44.261719 62.289062 C 44.808594 61.675781 45.359375 61.253906 46.132812 60.960938 L 46.355469 60.871094 C 46.882812 60.667969 47.363281 60.574219 47.925781 60.535156 Z M 47.925781 60.535156 " fill-opacity="1" fill-rule="nonzero"/><path fill="#1dbcd4" d="M 49.433594 62.84375 C 49.964844 63.097656 50.394531 63.320312 50.664062 63.859375 C 50.867188 64.183594 50.664062 65.542969 50.210938 66.351562 C 50.183594 66.40625 50.15625 66.464844 50.125 66.519531 C 49.996094 66.746094 49.914062 66.835938 49.660156 66.914062 L 49.472656 66.925781 C 49.410156 66.667969 49.394531 66.460938 49.398438 66.195312 C 49.402344 65.730469 49.351562 65.40625 49.066406 65.042969 C 48.820312 64.632812 47.988281 64.628906 47.660156 64.632812 C 47.445312 64.636719 47.230469 64.636719 47.015625 64.632812 C 46.933594 64.554688 46.933594 64.554688 46.910156 64.261719 C 46.914062 63.8125 47.070312 63.4375 47.386719 63.113281 C 47.964844 62.621094 48.726562 62.617188 49.433594 62.84375 Z M 49.433594 62.84375 " fill-opacity="1" fill-rule="nonzero"/><g transform="matrix(1, 0, 0, 1, 94, 40)"><g clip-path="url(#1b0533d4d9)"><g fill="#000000" fill-opacity="1"><g transform="translate(0.458834, 51.89875)"><g><path d="M 4.140625 0 L 4.140625 -48.59375 L 12.40625 -48.59375 L 30.1875 -6.265625 L 30.25 -6.265625 L 47.96875 -48.59375 L 56.234375 -48.59375 L 56.234375 0 L 50.515625 0 L 50.515625 -40.3125 L 50.375 -40.3125 L 33.21875 0 L 27.15625 0 L 10 -40.25 L 9.859375 -40.25 L 9.859375 0 Z M 4.140625 0 "/></g></g></g><g fill="#000000" fill-opacity="1"><g transform="translate(60.833155, 51.89875)"><g><path d="M 21.296875 1.375 C 17.617188 1.375 14.320312 0.550781 11.40625 -1.09375 C 8.488281 -2.75 6.203125 -5.023438 4.546875 -7.921875 C 2.890625 -10.816406 2.0625 -14.101562 2.0625 -17.78125 C 2.0625 -21.363281 2.816406 -24.53125 4.328125 -27.28125 C 5.847656 -30.039062 7.953125 -32.210938 10.640625 -33.796875 C 13.335938 -35.390625 16.40625 -36.1875 19.84375 -36.1875 C 23.25 -36.1875 26.210938 -35.390625 28.734375 -33.796875 C 31.265625 -32.210938 33.238281 -30.03125 34.65625 -27.25 C 36.082031 -24.476562 36.820312 -21.300781 36.875 -17.71875 C 36.875 -17.394531 36.875 -17.0625 36.875 -16.71875 C 36.875 -16.375 36.847656 -16.015625 36.796875 -15.640625 L 7.515625 -15.640625 C 7.785156 -13.253906 8.539062 -11.128906 9.78125 -9.265625 C 11.019531 -7.410156 12.640625 -5.960938 14.640625 -4.921875 C 16.640625 -3.890625 18.878906 -3.375 21.359375 -3.375 C 24.078125 -3.375 26.515625 -4.003906 28.671875 -5.265625 C 30.828125 -6.535156 32.390625 -8.113281 33.359375 -10 L 37.90625 -8.125 C 37.164062 -6.289062 35.976562 -4.648438 34.34375 -3.203125 C 32.71875 -1.753906 30.789062 -0.628906 28.5625 0.171875 C 26.332031 0.972656 23.910156 1.375 21.296875 1.375 Z M 7.578125 -20.265625 L 31.296875 -20.265625 C 30.972656 -23.796875 29.765625 -26.523438 27.671875 -28.453125 C 25.578125 -30.390625 22.945312 -31.359375 19.78125 -31.359375 C 16.5625 -31.359375 13.847656 -30.332031 11.640625 -28.28125 C 9.441406 -26.238281 8.085938 -23.566406 7.578125 -20.265625 Z M 7.578125 -20.265625 "/></g></g></g><g fill="#000000" fill-opacity="1"><g transform="translate(100.393502, 51.89875)"><g><path d="M 21.296875 1.375 C 17.617188 1.375 14.320312 0.550781 11.40625 -1.09375 C 8.488281 -2.75 6.203125 -5.023438 4.546875 -7.921875 C 2.890625 -10.816406 2.0625 -14.101562 2.0625 -17.78125 C 2.0625 -21.363281 2.816406 -24.53125 4.328125 -27.28125 C 5.847656 -30.039062 7.953125 -32.210938 10.640625 -33.796875 C 13.335938 -35.390625 16.40625 -36.1875 19.84375 -36.1875 C 23.25 -36.1875 26.210938 -35.390625 28.734375 -33.796875 C 31.265625 -32.210938 33.238281 -30.03125 34.65625 -27.25 C 36.082031 -24.476562 36.820312 -21.300781 36.875 -17.71875 C 36.875 -17.394531 36.875 -17.0625 36.875 -16.71875 C 36.875 -16.375 36.847656 -16.015625 36.796875 -15.640625 L 7.515625 -15.640625 C 7.785156 -13.253906 8.539062 -11.128906 9.78125 -9.265625 C 11.019531 -7.410156 12.640625 -5.960938 14.640625 -4.921875 C 16.640625 -3.890625 18.878906 -3.375 21.359375 -3.375 C 24.078125 -3.375 26.515625 -4.003906 28.671875 -5.265625 C 30.828125 -6.535156 32.390625 -8.113281 33.359375 -10 L 37.90625 -8.125 C 37.164062 -6.289062 35.976562 -4.648438 34.34375 -3.203125 C 32.71875 -1.753906 30.789062 -0.628906 28.5625 0.171875 C 26.332031 0.972656 23.910156 1.375 21.296875 1.375 Z M 7.578125 -20.265625 L 31.296875 -20.265625 C 30.972656 -23.796875 29.765625 -26.523438 27.671875 -28.453125 C 25.578125 -30.390625 22.945312 -31.359375 19.78125 -31.359375 C 16.5625 -31.359375 13.847656 -30.332031 11.640625 -28.28125 C 9.441406 -26.238281 8.085938 -23.566406 7.578125 -20.265625 Z M 7.578125 -20.265625 "/></g></g></g><g fill="#000000" fill-opacity="1"><g transform="translate(139.953849, 51.89875)"><g><path d="M 18.546875 -36.25 C 21.523438 -36.25 23.96875 -35.304688 25.875 -33.421875 C 27.78125 -31.535156 28.894531 -28.847656 29.21875 -25.359375 L 24.671875 -23.84375 C 24.398438 -26.28125 23.65625 -28.140625 22.4375 -29.421875 C 21.21875 -30.710938 19.664062 -31.359375 17.78125 -31.359375 C 14.976562 -31.359375 12.757812 -30.273438 11.125 -28.109375 C 9.5 -25.953125 8.6875 -22.96875 8.6875 -19.15625 L 8.6875 0 L 3.453125 0 L 3.453125 -34.8125 L 7.921875 -34.8125 L 8.40625 -29.359375 L 8.484375 -29.359375 C 9.441406 -31.472656 10.804688 -33.148438 12.578125 -34.390625 C 14.347656 -35.628906 16.335938 -36.25 18.546875 -36.25 Z M 18.546875 -36.25 "/></g></g></g><g fill="#000000" fill-opacity="1"><g transform="translate(170.554533, 51.89875)"><g><path d="M 0.6875 0 L 19.578125 -48.59375 L 26.46875 -48.59375 L 45.21875 0 L 39.140625 0 L 34.734375 -11.640625 L 11.296875 -11.640625 L 6.828125 0 Z M 12.953125 -16.75 L 33.015625 -16.75 L 23.09375 -42.9375 L 22.953125 -42.9375 Z M 12.953125 -16.75 "/></g></g></g><g fill="#000000" fill-opacity="1"><g transform="translate(216.455563, 51.89875)"><g><path d="M 4.140625 0 L 4.140625 -48.59375 L 24.046875 -48.59375 C 27.546875 -48.59375 30.613281 -47.957031 33.25 -46.6875 C 35.894531 -45.425781 37.960938 -43.691406 39.453125 -41.484375 C 40.953125 -39.285156 41.703125 -36.738281 41.703125 -33.84375 C 41.703125 -30.988281 40.953125 -28.445312 39.453125 -26.21875 C 37.960938 -23.988281 35.882812 -22.253906 33.21875 -21.015625 C 30.550781 -19.773438 27.492188 -19.15625 24.046875 -19.15625 L 9.71875 -19.15625 L 9.71875 0 Z M 9.71875 -24.328125 L 24.046875 -24.328125 C 26.390625 -24.328125 28.457031 -24.726562 30.25 -25.53125 C 32.039062 -26.332031 33.441406 -27.457031 34.453125 -28.90625 C 35.472656 -30.351562 35.984375 -32 35.984375 -33.84375 C 35.984375 -36.6875 34.878906 -39.003906 32.671875 -40.796875 C 30.460938 -42.585938 27.585938 -43.484375 24.046875 -43.484375 L 9.71875 -43.484375 Z M 9.71875 -24.328125 "/></g></g></g><g fill="#000000" fill-opacity="1"><g transform="translate(259.530851, 51.89875)"><g><path d="M 4.140625 0 L 4.140625 -48.59375 L 9.859375 -48.59375 L 9.859375 0 Z M 4.140625 0 "/></g></g></g></g></g></svg>